<svg id="Layer_1" data-name="Layer 1" xmlns="http://www.w3.org/2000/svg" viewBox="0 0 212.84 141.27"><path d="M202.16,72.59a49.77,49.77,0,0,1,10.68,20.18c-3-8.64-9.29-15.62-16.39-21.15-7.18-5.83-15.81-9.68-24.42-12.85a86,86,0,0,0-11.27-3.05,40.18,40.18,0,0,1-3.48,10.74c.63.13,1.27.29,1.89.48a18.9,18.9,0,0,1,8,4,17.41,17.41,0,0,1,4,5.5,16.85,16.85,0,0,1,1.46,4.66,26.74,26.74,0,0,1,0,7.58A43.78,43.78,0,0,1,165,105.86a4,4,0,0,1,.2-.35,37,37,0,0,0,3.63-8.61,31.2,31.2,0,0,0,.86-11.26,18.53,18.53,0,0,0-6.31-11.75,13.13,13.13,0,0,0-2.45-1.51c-.88-.35-1.79-.66-2.7-.92a20.48,20.48,0,0,0-3.47-.6,39.15,39.15,0,0,1-8.08,9c-8.7,7.8-21.51,14.72-27.7,24.89.55.65,1.14,1.26,1.72,1.89a17.94,17.94,0,0,0,5.13,3.9,24.38,24.38,0,0,1-6.65-4.06l-.76-.76a23.48,23.48,0,0,0-2.81,14.91,26.33,26.33,0,0,1,1.25-16.69c-.31-.39-.62-.79-.91-1.2q-.69-.9-1.32-1.86c-.54,1.41-1,2.83-1.42,4.29a40.86,40.86,0,0,0-1.48,11,28.3,28.3,0,0,0,1.29,9A37,37,0,0,1,110.35,111a39.39,39.39,0,0,1,2.3-13.6,30.84,30.84,0,0,1-1.32-2.93c-.39,1.21-.76,2.43-1.1,3.66-.13.43-.25.85-.37,1.28a69.41,69.41,0,0,0-1,7.74c-.21,3.85-.31,7.71-.49,11.56q-.66,6.9-1.28,13.82h0c-.07.73-.13,1.46-.19,2.19l-.33,3.75-.06.8c-.06.68-.12,1.35-.17,2-.14-1.44-.28-2.88-.45-4.31-.07-.51-.12-1-.18-1.53v-1.69c-.07-.76-.14-1.53-.19-2.3v-.67c-.17-2.27-.29-4.54-.42-6.73-.21-3.1-.1-6.21-.28-9.32-.08-2.13-.24-4.25-.33-6.38a45.1,45.1,0,0,0-.54-5.45c-.06-.39-.12-.79-.17-1.19-.3-1.21-.63-2.41-1-3.6s-.71-2.45-1.1-3.66a30.84,30.84,0,0,1-1.32,2.93,39.39,39.39,0,0,1,2.3,13.6A36.72,36.72,0,0,1,100,125.21a28.3,28.3,0,0,0,1.29-9,41.26,41.26,0,0,0-1.48-11c-.4-1.46-.88-2.88-1.42-4.29a17.36,17.36,0,0,1-1.32,1.86c-.29.41-.6.81-.91,1.2a26.33,26.33,0,0,1,1.25,16.69,23.48,23.48,0,0,0-2.81-14.91l-.76.76a24.13,24.13,0,0,1-6.82,4,17.94,17.94,0,0,0,5.13-3.9c.58-.63,1.17-1.24,1.72-1.89-6.19-10.17-19-17.09-27.7-24.89a39.63,39.63,0,0,1-8.09-9,20.2,20.2,0,0,0-3.46.6c-.91.26-1.82.57-2.7.92a13.2,13.2,0,0,0-2.46,1.51,18.56,18.56,0,0,0-6.3,11.75A31.08,31.08,0,0,0,44,96.9a37,37,0,0,0,3.63,8.61c0,.12.16.23.2.35a43.71,43.71,0,0,1-7.48-17.13,26.73,26.73,0,0,1-.05-7.58,16.85,16.85,0,0,1,1.46-4.66,17.41,17.41,0,0,1,4-5.5,18.79,18.79,0,0,1,8-4q.93-.28,1.89-.48a40.68,40.68,0,0,1-3.49-10.74,85.69,85.69,0,0,0-11.26,3c-8.61,3.17-17.24,7-24.42,12.85C9.29,77.15,3,84.13,0,92.77A49.53,49.53,0,0,1,10.68,72.59,54.55,54.55,0,0,1,22.85,61.82,82.63,82.63,0,0,1,45.2,52.64l-3.33-.12c-6.94,0-14.28,0-20.47,3.6a42.35,42.35,0,0,1,13.42-6.57,43.11,43.11,0,0,1,13.36-1.76,26.38,26.38,0,0,1,3.2.26,33.69,33.69,0,0,1,.93-8.43A54.54,54.54,0,0,1,34.81,14.4c-1.49-4.4-3-9.08-2.26-13.78A4.26,4.26,0,0,1,32.68,0a.76.76,0,0,1,0,.3A14,14,0,0,0,33,5a37.57,37.57,0,0,0,3.59,9.38,61.5,61.5,0,0,0,4.65,7.76,56.46,56.46,0,0,0,9.28,11c1,.87,2,1.72,3,2.53A36,36,0,0,1,56.74,29a28.71,28.71,0,0,1,3.92-5q-2.22-2.49-4.57-4.86c-5.09-5-10.21-10-15.77-14.53l-.07-.05h0c.3.19.57.42.86.63a174.63,174.63,0,0,1,14.27,11q3.52,3.12,6.77,6.53A12.63,12.63,0,0,1,68,19.52a4.47,4.47,0,0,0-1.57.63,20.22,20.22,0,0,0-3.62,3.23q2.61,2.78,5.06,5.7,6,7.16,11.26,14.85c.94-.38,1.86-.79,2.77-1.22C78.78,35.8,80.3,28,86.16,22.41h0a16.56,16.56,0,0,0-1.54,18.9,36.6,36.6,0,0,0,5.7-3.94C97.85,30.25,103.76,20.46,104.9,10c-.32,10.58-4.17,21.3-11.71,28.89A37.12,37.12,0,0,1,86.72,44c3.81,4.13,9.13,6.69,12.63,11.16,5.77,7.38,5.87,17.31,6.21,26.28-1-8.18-3.31-16.77-9-23-3.81-4.22-8.9-7.13-12.27-11.77-.22-.28-.42-.57-.62-.85-.79.42-1.6.83-2.42,1.22.61.91,1.2,1.83,1.79,2.75L84.69,52a44.67,44.67,0,0,1,11.57,9.82,31,31,0,0,1,5,8.41,33.51,33.51,0,0,1,2.34,12.44v2.15q1.5,3.33,2.82,6.73c.88-2.27,1.82-4.52,2.82-6.73V82.67a33.51,33.51,0,0,1,2.34-12.44,31,31,0,0,1,5-8.41A44.67,44.67,0,0,1,128.15,52l1.65-2.16c.59-.92,1.18-1.84,1.78-2.75-.81-.39-1.62-.8-2.41-1.22l-.62.85c-3.37,4.64-8.46,7.55-12.27,11.77-5.7,6.26-8,14.85-9,23,.34-9,.44-18.9,6.21-26.28,3.5-4.47,8.82-7,12.63-11.16a37.83,37.83,0,0,1-6.47-5.15c-7.54-7.6-11.39-18.32-11.71-28.9,1.14,10.46,7,20.25,14.57,27.37a36.6,36.6,0,0,0,5.7,3.94,16.56,16.56,0,0,0-1.55-18.9h0c5.86,5.62,7.38,13.39,4.26,20.3.91.43,1.83.84,2.76,1.22Q139,36.25,145,29.08c1.63-1.95,3.31-3.85,5.06-5.7a20.22,20.22,0,0,0-3.62-3.23,4.47,4.47,0,0,0-1.57-.63,12.71,12.71,0,0,1,5.86,3.15q3.26-3.41,6.77-6.53c4.52-3.94,9.39-7.46,14.27-10.95.29-.21.56-.44.86-.63h0l-.07.05C167,9.13,161.84,14.17,156.75,19.2q-2.35,2.37-4.57,4.86a28.71,28.71,0,0,1,3.92,5,35.31,35.31,0,0,1,3.23,6.59c1-.81,2-1.66,3-2.53a57.47,57.47,0,0,0,9.28-11,61.5,61.5,0,0,0,4.65-7.76A38.43,38.43,0,0,0,179.87,5,14.31,14.31,0,0,0,180.2.3a.76.76,0,0,1,0-.3,4.26,4.26,0,0,0,.13.62C181,5.32,179.52,10,178,14.4a54.79,54.79,0,0,1-17.5,25.22,33.68,33.68,0,0,1,.92,8.43c1.07-.13,2.14-.22,3.21-.26A43.21,43.21,0,0,1,178,49.55a42.35,42.35,0,0,1,13.42,6.57c-6.19-3.56-13.53-3.55-20.47-3.6l-3.33.12A82.82,82.82,0,0,1,190,61.82,54.29,54.29,0,0,1,202.16,72.59ZM157.42,48.73a43,43,0,0,0-.1-6.62c-.83.62-1.66,1.23-2.5,1.83-2.41,1.54-4.94,2.89-7.48,4.2l6.88,1.4C155.28,49.24,156.35,49,157.42,48.73Zm-.85,6.11-1.42-.3c-1.73.5-3.43,1.11-5.11,1.76a56.72,56.72,0,0,0-14.86,8.42A98.57,98.57,0,0,0,124,74.86a61.5,61.5,0,0,0-8.23,11.87c3.75-8.38,8.29-16.64,14.88-23.14,1.23-1.18,2.53-2.29,3.8-3.42a59.54,59.54,0,0,1,6.41-4.62,60.94,60.94,0,0,1,5.67-3.09L145.16,52q-1.83-.54-3.69-1.14c-2.79,1.25-5.62,2.46-8.39,3.76-1.42.7-2.83,1.41-4.2,2.19a215,215,0,0,0-10,19.08c-2,4.38-3.94,8.78-5.65,13.28a43.09,43.09,0,0,0,.93,4.49A50.66,50.66,0,0,1,125,78.08a33.82,33.82,0,0,1,4.27-3.75A41.47,41.47,0,0,1,140.76,68,42.12,42.12,0,0,1,151,66h.74a37.67,37.67,0,0,0,3.38-6.25,29.77,29.77,0,0,0,1.45-4.91Zm-1.59-16,1.68-1.18A32.39,32.39,0,0,0,151.34,25a154.84,154.84,0,0,0-10.68,13.8c-1.49,2-2.92,4.06-4.31,6.14,1.42.5,2.85,1,4.28,1.39l.77-.33c2.63-1.14,5.27-2.28,7.78-3.66,2-1.06,3.88-2.34,5.82-3.51Zm-7.35,32.34c-1.28.21-2.6.4-3.84.72a40,40,0,0,0-4,1.35,45.92,45.92,0,0,0-13.67,9.17,50.66,50.66,0,0,0-9.28,13.41c-.42.89-.83,1.79-1.21,2.7a26,26,0,0,0,1.88,4,33.91,33.91,0,0,1,7.94-10.82c6.93-7.14,15.55-13,22.18-20.54ZM135.19,48.63l-1-.4-.74,1.15ZM120.7,63.08l-.46.51a26.2,26.2,0,0,0-6,10.94c1.17-2,2.39-4,3.64-6,.75-1.51,1.51-3,2.31-4.54ZM98.7,93.7a43.09,43.09,0,0,0,.93-4.49C98,84.71,96,80.31,94,75.93,90.93,69.43,87.61,63,84,56.85c-1.37-.78-2.78-1.49-4.2-2.19-2.78-1.3-5.6-2.51-8.4-3.76-1.23.4-2.46.78-3.68,1.14-.47.15-.94.29-1.42.42a56.89,56.89,0,0,1,12.09,7.71c1.27,1.13,2.57,2.24,3.8,3.42C88.74,70.09,93.27,78.35,97,86.73a61.67,61.67,0,0,0-8.2-11.87A98.18,98.18,0,0,0,77.66,64.72,56.72,56.72,0,0,0,62.8,56.3c-1.68-.65-3.38-1.26-5.11-1.76l-1.42.3a29.45,29.45,0,0,0,1.5,4.84,37.67,37.67,0,0,0,3.38,6.25h.74a42.1,42.1,0,0,1,10.19,2,41.7,41.7,0,0,1,11.53,6.38,33.82,33.82,0,0,1,4.27,3.75A50.78,50.78,0,0,1,98.73,93.7Zm-1.47,4.82c-.39-.91-.79-1.81-1.21-2.7a50.66,50.66,0,0,0-9.28-13.41,45.65,45.65,0,0,0-13.68-9.17,40,40,0,0,0-4-1.35c-1.23-.32-2.55-.51-3.83-.72,6.61,7.5,15.25,13.4,22.23,20.52a33.73,33.73,0,0,1,7.93,10.82,25.54,25.54,0,0,0,1.87-4Zm-2.3-30c1.25,2,2.47,4,3.64,6a26.2,26.2,0,0,0-6-10.94l-.46-.51c.17.3.34.6.5.9.84,1.54,1.6,3,2.39,4.55ZM79.37,49.38l-.74-1.15-1,.4Zm-7.16-3.05c1.43-.43,2.86-.89,4.27-1.39q-2.07-3.12-4.3-6.14A158.22,158.22,0,0,0,61.5,25a32.26,32.26,0,0,0-5.32,12.63l1.68,1.18c1.92,1.19,3.8,2.45,5.79,3.51,2.52,1.38,5.16,2.52,7.79,3.66ZM58.62,49.54l6.88-1.4c-2.5-1.31-5.07-2.66-7.5-4.2q-1.26-.9-2.49-1.83a43,43,0,0,0-.1,6.62C56.49,49,57.56,49.24,58.62,49.54Z"/></svg>