<svg id="Layer_1" data-name="Layer 1" xmlns="http://www.w3.org/2000/svg" viewBox="0 0 125.69 127.47"><defs><style>.cls-1,.cls-2{fill:none;stroke:#000;stroke-linecap:round;stroke-linejoin:round;}.cls-2{stroke-width:3px;}</style></defs><polyline class="cls-1" points="62.84 16.56 110.02 63.73 62.84 110.91"/><polyline class="cls-1" points="62.84 16.56 15.67 63.73 62.84 110.91"/><polyline class="cls-1" points="74.42 16.56 121.6 63.73 74.42 110.91"/><polyline class="cls-1" points="51.26 16.56 4.09 63.73 51.26 110.91"/><polyline class="cls-2" points="52.31 16.56 99.49 63.73 52.31 110.91"/><polyline class="cls-2" points="73.37 110.91 26.2 63.73 73.37 16.56"/><line class="cls-1" x1="125.19" y1="63.57" x2="0.5" y2="63.57"/><line class="cls-2" x1="62.84" y1="125.97" x2="62.84" y2="117.42"/><line class="cls-2" x1="62.84" y1="90.59" x2="62.84" y2="82.04"/><line class="cls-2" x1="62.84" y1="1.5" x2="62.84" y2="10.05"/><line class="cls-2" x1="62.84" y1="36.88" x2="62.84" y2="45.43"/><rect class="cls-2" x="96.76" y="18.97" width="11.08" height="11.08" transform="translate(12.63 79.51) rotate(-45)"/><rect class="cls-2" x="17.85" y="18.97" width="11.08" height="11.08" transform="translate(22.6 58.37) rotate(-135)"/><rect class="cls-2" x="96.76" y="97.09" width="11.08" height="11.08" transform="translate(102.53 -42.28) rotate(45)"/><rect class="cls-2" x="17.85" y="97.09" width="11.08" height="11.08" transform="translate(112.49 158.66) rotate(135)"/></svg>