<svg id="Layer_1" data-name="Layer 1" xmlns="http://www.w3.org/2000/svg" viewBox="0 0 163.54 155.92"><defs><style>.cls-1{fill:#fff;}</style></defs><path class="cls-1" d="M41.88,50.78a10.4,10.4,0,0,1,1.19.4,12.35,12.35,0,0,1,3.19,1.88,14,14,0,0,1,3.44,4.2c.23.42.44.86.64,1.32l.61-.24A11.82,11.82,0,0,0,50.19,57a14,14,0,0,0-3.8-4.08,14.3,14.3,0,0,0-3.31-1.73l-.26-.09h0C42.35,50.91,42,50.82,41.88,50.78Z"/><path class="cls-1" d="M69.1,79.94l.3-.37c-.2-.32-.42-.64-.67-1a11.78,11.78,0,0,0-1.91-1.89l-.21.19h0c-.11.11-.22.24-.33.36a13.27,13.27,0,0,1,2,1.75A11.65,11.65,0,0,1,69.1,79.94Z"/><path class="cls-1" d="M64.32,18.61l.2.19Z"/><path class="cls-1" d="M87.1,27a48,48,0,0,1-9-1.3,35.7,35.7,0,0,1-7.62-2.79,26,26,0,0,1-4.63-3c-.62-.51-1-.91-1.29-1.13.23.22.64.6,1.28,1.14a29.28,29.28,0,0,0,4.53,3.14A34.71,34.71,0,0,0,78,26.22a41.57,41.57,0,0,0,9.13,1.51C87.08,27.53,87.09,27.27,87.1,27Z"/><path class="cls-1" d="M58.43,10.4A23,23,0,0,1,57,16.58a32.47,32.47,0,0,1-2.41,5.05,3.64,3.64,0,0,0,.06.8,33.75,33.75,0,0,0,2.55-5.77,25.26,25.26,0,0,0,1.23-6.26c.06-1,0-1.67,0-2,1.56,3,3,6,4.48,9,.46.93.89,1.87,1.33,2.81v.42a16.62,16.62,0,0,1-1.4,5.08,27.75,27.75,0,0,1-4.2,6.56c-.35.41-.73.83-1.11,1.24.09.22.18.44.29.65.44-.51.87-1,1.27-1.53a27.44,27.44,0,0,0,4-6.84,18.31,18.31,0,0,0,1.21-5.16v-.39c1.4,3,2.74,6,4,9a12.22,12.22,0,0,1-.44,3,18,18,0,0,1-2.68,5.57,28.78,28.78,0,0,1-2.94,3.59l.4.67a26.09,26.09,0,0,0,3-3.94A18.44,18.44,0,0,0,68,32.29a13.1,13.1,0,0,0,.29-2.86q1.29,3,2.54,6c.83,2,1.63,3.94,2.38,5.81-.06.36-.13.76-.24,1.18a19.57,19.57,0,0,1-3.93,7.63c-.28.34-.57.65-.86,1l.56.52a11,11,0,0,0,.9-1,15.9,15.9,0,0,0,2.5-4.24,17.68,17.68,0,0,0,1-3.86c.06-.35.1-.69.13-1q3.31,8.25,6.39,16.58H80a1,1,0,0,0,.88-.53V57.4l-.81-2.14-.22-.3H80c-.22-.56-.43-1.13-.64-1.69-1.8-4.64-3.63-9.26-5.56-13.85l.16.37A14.41,14.41,0,0,0,75.3,42a9.6,9.6,0,0,0,3.14,2.84,9.08,9.08,0,0,0,2.37.91,10.74,10.74,0,0,0,2.71.26,14.14,14.14,0,0,0,3.29-.54l.09-.62v-.11a16.2,16.2,0,0,1-3.4.48,10.56,10.56,0,0,1-4.8-.9,9.46,9.46,0,0,1-3.23-2.45,12,12,0,0,1-1.54-2.32c-.3-.6-.43-.94-.43-.94a.73.73,0,0,0,.14.34c0-.11-.1-.22-.14-.33-.54-1.26-1.08-2.53-1.63-3.79-1.25-2.83-2.51-5.65-3.81-8.46-1.21-2.61-2.45-5.21-3.74-7.78-1.7-3.41-3.47-6.78-5.35-10.08.32.3.81.74,1.45,1.27a36.77,36.77,0,0,0,5.94,4,48.36,48.36,0,0,0,9.84,4,59.07,59.07,0,0,0,10.46,2,5.45,5.45,0,0,0-.14-.79,66.09,66.09,0,0,1-10.17-1.73,51.23,51.23,0,0,1-9.9-3.61,34.35,34.35,0,0,1-6-3.8c-.66-.53-1.15-1-1.47-1.27Q56.51,4.2,53.76,0q2.49,4.11,4.73,8.36A17.38,17.38,0,0,1,58.43,10.4Z"/><path class="cls-1" d="M73.49,66.47l.71.79,2.68-1.32c-.07-.19-.13-.41-.19-.64C75.62,65.68,74.55,66.07,73.49,66.47Z"/><path class="cls-1" d="M85.25,56.13l.45-3.08c-.53.88-1.06,1.75-1.57,2.63a9.39,9.39,0,0,1,.84.94C85.06,56.46,85.15,56.29,85.25,56.13Z"/><path class="cls-1" d="M57.47,93.16Z"/><path class="cls-1" d="M27,44a37,37,0,0,0,8.85-3.41,48.58,48.58,0,0,0,9.52-6.69A46.4,46.4,0,0,0,53,25.16l.08-.13a5.8,5.8,0,0,0,0-.93l-.5.73a52.77,52.77,0,0,1-7.7,8.52,55.48,55.48,0,0,1-9.28,6.76,37.6,37.6,0,0,1-8.62,3.71,21.93,21.93,0,0,1-6.29.89,15.28,15.28,0,0,1-2.24-.2,16.82,16.82,0,0,0,2.24.22A24.36,24.36,0,0,0,27,44Z"/><path class="cls-1" d="M102.51,63.13a12.13,12.13,0,0,0-.85,2q-.19.63-.33,1.29l.69.37c.11-.47.23-.94.39-1.42a15.39,15.39,0,0,1,.94-2.26h-.75Z"/><path class="cls-1" d="M109.33,70.76l.62.34a21.41,21.41,0,0,1,.72-4.91c.16-.6.36-1.18.56-1.74l-.7-.28a16.19,16.19,0,0,0-.61,1.82A17.87,17.87,0,0,0,109.33,70.76Z"/><path class="cls-1" d="M89,19.94h0a59,59,0,0,0,13-.66,46.39,46.39,0,0,0,10.21-2.86,32.57,32.57,0,0,0,6.28-3.4l.21-.14c-1.29,1.2-2.56,2.42-3.82,3.64q-2.94,2.91-5.77,5.92a26,26,0,0,1-3.54,1.77,35.88,35.88,0,0,1-7.81,2.21,47.62,47.62,0,0,1-8,.65v.78A42,42,0,0,0,97.9,27a36.12,36.12,0,0,0,7.79-2.57A29.46,29.46,0,0,0,109,22.62q-4.08,4.35-7.9,8.93l-1,1.24Q96.6,37,93.43,41.4v0l-.78,1.07-.46.26a21.26,21.26,0,0,1-2.27,1.06v.5a21.66,21.66,0,0,0,2.38-1.38h.08c-.94,1.33-1.86,2.67-2.76,4l-.49,2.85c1-1.59,2-3.17,3.11-4.72a9.54,9.54,0,0,0,.47,4c0,.07.06.14.08.21l.09-.18.11.06.27-.27h0a9.51,9.51,0,0,1-.78-3.9v-.22q3.54-5.13,7.39-10a10.17,10.17,0,0,0-.22,1.83,13,13,0,0,0,.48,3.72l.63.39a12.89,12.89,0,0,1-.9-4.11,9.58,9.58,0,0,1,.15-2l.8-1q4.8-6,10-11.68c-.14.25-.33.62-.55,1.09a14.08,14.08,0,0,0-1.16,4.64,18.46,18.46,0,0,0,.91,7l.54-.21a18.35,18.35,0,0,1-1.23-6.83,12.75,12.75,0,0,1,1-4.64,11.29,11.29,0,0,1,.53-1.11q2.22-2.41,4.51-4.75,1.81-1.87,3.66-3.7c-.16.3-.36.69-.57,1.17A17,17,0,0,0,117,20.16a23.19,23.19,0,0,0,1.17,8.71,31.64,31.64,0,0,0,1.38,3.54h.77a32.83,32.83,0,0,1-1.61-3.7,23,23,0,0,1-1.49-8.5,15.9,15.9,0,0,1,1.22-5.73c.21-.49.4-.89.56-1.19,4-3.93,8.1-7.71,12.3-11.41q-6.45,5.25-12.5,10.94l-.31.21a30.78,30.78,0,0,1-6.35,3.21,46.11,46.11,0,0,1-10.22,2.5,66.74,66.74,0,0,1-12.87.44h-.22c0,.11.06.21.08.32A.72.72,0,0,1,89,19.94Z"/><path class="cls-1" d="M108.29,58.59a4.32,4.32,0,0,1,.8-.14h-.21l-.6.1a7.4,7.4,0,0,0-2.09.77,8.11,8.11,0,0,0-1.31.88l.52,0a8.13,8.13,0,0,1,.9-.75A6.1,6.1,0,0,1,108.29,58.59Z"/><path class="cls-1" d="M65.87,88.86a19.84,19.84,0,0,0-1.24-1.8,20.26,20.26,0,0,0-3-3l-.35.69a24.06,24.06,0,0,1,2.89,2.73,18.74,18.74,0,0,1,1.55,2Z"/><path class="cls-1" d="M100.64,41.43l-.17-.17.09.25Z"/><path class="cls-1" d="M67.85,96.83a5.32,5.32,0,0,0,.14.78c.15-.54.29-1.08.44-1.62.47-1.65.95-3.3,1.47-4.94q1.23-3.93,2.64-7.78a8.9,8.9,0,0,1,.94-.67A11.67,11.67,0,0,1,76,81.46c-.09-.15-.16-.31-.24-.46a11.44,11.44,0,0,0-2.44,1.42c-.28.22-.52.43-.74.63.6-1.63,1.23-3.24,1.88-4.85L72,81.09c-.36.94-.71,1.89-1,2.85v-.08a3.35,3.35,0,0,0-.14-.67v.11c.06.21.11.4.14.56L71,84q-1.66,4.69-3,9.52l-.09-.28v.16l.09.25c-.1.35-.19.7-.29,1A11.81,11.81,0,0,0,67.85,96.83Z"/><path class="cls-1" d="M94.53,52.42a12.05,12.05,0,0,0,.79.95,12.68,12.68,0,0,0,4.14,3,12.32,12.32,0,0,0,4,1,12.73,12.73,0,0,0,2.76-.07c.65-.09,1-.17,1-.17a8.3,8.3,0,0,1-1,.14,10.41,10.41,0,0,1-2.73-.12,11.86,11.86,0,0,1-3.78-1.34,14.87,14.87,0,0,1-3.83-3c-.35-.38-.67-.78-1-1.18Z"/><path class="cls-1" d="M42.82,51.07Z"/><path class="cls-1" d="M134.12,64.07a21.61,21.61,0,0,1,4.4-7.18,13,13,0,0,1,2.54-2,10.43,10.43,0,0,1,2-.94q4.77-.36,9.55-.59c3.64-.17,7.29-.3,10.93-.39-1.82,0-3.64-.07-5.47-.09s-3.65,0-5.47,0c-3.33,0-6.64.13-9.91.27a18.36,18.36,0,0,1-5-2,45.12,45.12,0,0,1-14-13.16,41.14,41.14,0,0,1-2.63-4.17l-.79.08A38.34,38.34,0,0,0,123,38.45a44.86,44.86,0,0,0,7.26,8,36.28,36.28,0,0,0,7.28,4.93,20.15,20.15,0,0,0,4.92,1.79h-.9q-6.1.3-12.19.86a15.13,15.13,0,0,1-3.54-1.5,36.86,36.86,0,0,1-11.28-10.68,34.49,34.49,0,0,1-3.22-5.51l-.61.28A30.65,30.65,0,0,0,114,42.33a35.76,35.76,0,0,0,5.9,6.45,29.6,29.6,0,0,0,5.92,4,18.24,18.24,0,0,0,3.5,1.32c-3.17.29-6.33.64-9.5,1.06h-.13a8.65,8.65,0,0,1-1.25.06,11.48,11.48,0,0,1-3.66-.75A25.6,25.6,0,0,1,105,47.28a25.41,25.41,0,0,1-2.53-3.4l-.51.51a21,21,0,0,0,2.45,3.41,24.72,24.72,0,0,0,5.24,4.49,20,20,0,0,0,5.09,2.37,13.14,13.14,0,0,0,3.73.58,8.89,8.89,0,0,0,1.15-.08c-7.17.94-14.31,2.24-21.37,3.86-2.72.64-5.43,1.35-8.12,2.1l-.2.4,4.64-1.19v-.1H95l.4-.1v.09l5.23-.09c5.74-1.33,11.53-2.43,17.35-3.35a9.53,9.53,0,0,0-2.29,1,11.4,11.4,0,0,0-3.37,3.12c-.29.4-.56.83-.82,1.27l.6.29c.22-.43.45-.84.7-1.23a11.43,11.43,0,0,1,3-3.27,8.27,8.27,0,0,1,2.5-1.21l1.72-.27c2.89-.43,5.8-.82,8.7-1.16a11.92,11.92,0,0,0-2.07,1.21,15.85,15.85,0,0,0-4.21,4.86,24.29,24.29,0,0,0-2.55,6.85l0,.05c.25.26.44.48.59.65A28.26,28.26,0,0,1,123,61.67a15.5,15.5,0,0,1,3.84-5A10.67,10.67,0,0,1,129,55.25q6.33-.73,12.7-1.23l1.25-.09a11.53,11.53,0,0,0-1.94.85,13.59,13.59,0,0,0-2.64,2,21.32,21.32,0,0,0-4.78,7.11A37.78,37.78,0,0,0,130.85,74a47.36,47.36,0,0,0-.24,10.51,41.55,41.55,0,0,0,1.58,8.42,28.47,28.47,0,0,0,2.17,5.34c.11.21.21.39.31.56Q129,93.18,122.85,88c-.14-.22-.36-.58-.62-1.07a18.92,18.92,0,0,1-1.51-4,28.43,28.43,0,0,1-.85-6.29,35.55,35.55,0,0,1,.42-6.35l-.18-.08L120,70.1l-.39-.36a29.78,29.78,0,0,0-.3,6.93A27.35,27.35,0,0,0,120.51,83a21.37,21.37,0,0,0,1.7,4c.27.48.49.83.64,1.06l-1.45-1.2-.56-.44c.14.53.26,1,.35,1.53,4.06,3.22,8,6.64,11.74,10.21l-.53-.28a19,19,0,0,0-5.24-1.76,17.12,17.12,0,0,0-3.85-.25,17.61,17.61,0,0,0-4.37.79,22.33,22.33,0,0,0-8.67,5.24,29.39,29.39,0,0,0-6,8.17,30.78,30.78,0,0,0-2.68,7.8,27,27,0,0,0-.54,5.52c-1-4.4-2-8.76-3.17-13.12a23.48,23.48,0,0,1,.48-3.74,31.28,31.28,0,0,1,2.07-6.38,32,32,0,0,1,4.22-7,20,20,0,0,1,6.11-5.26,12.61,12.61,0,0,1,3.32-1.22,10.77,10.77,0,0,1,5.08.08l0-.14a13.93,13.93,0,0,0-1.92-.4,11.68,11.68,0,0,0-3.18.07,13.49,13.49,0,0,0-3.51,1.09A18.81,18.81,0,0,0,104,92.66a28,28,0,0,0-4.14,7.26,31.79,31.79,0,0,0-1.76,6.56,29.3,29.3,0,0,0-.31,3.62l-.25-1c-1.36-5.25-2.88-10.46-4.46-15.66.06-.35.13-.73.22-1.13A21.34,21.34,0,0,1,95,87.72a22.27,22.27,0,0,1,3.32-4.94A14.25,14.25,0,0,1,103,79.24a9.43,9.43,0,0,1,4.74-.82h.37c3.72,2.44,7.33,5,10.86,7.74h0c-.26-.64-.55-1.28-.86-1.91-2-1.57-4.1-3.11-6.21-4.58-.1-.16-.26-.41-.44-.76a12.78,12.78,0,0,1-1.06-2.86c-.11-.45-.2-1-.28-1.46l-.4-.26a15.17,15.17,0,0,0,1.72,4.59c.2.34.36.59.46.75q-4.8-3.36-9.83-6.37a6.84,6.84,0,0,1-.23-.89,11,11,0,0,1-.22-2.42l-.51-.28a11.31,11.31,0,0,0,.52,2.76c.08.26.17.5.26.73-1.31-.79-2.64-1.55-4-2.3L98,71a13.84,13.84,0,0,1,.47,1.55c1.44.81,2.87,1.65,4.28,2.5-.12-.08-.29-.17-.52-.3a12.51,12.51,0,0,0-2.2-.93,9,9,0,0,0-1.34-.31v.37A7.17,7.17,0,0,1,100,74a9.35,9.35,0,0,1,2.24.74c.3.15.51.27.63.34l.13.07c1.61,1,3.21,2,4.78,3a9.52,9.52,0,0,0-4.93.5,13.13,13.13,0,0,0-5,3.55,18.45,18.45,0,0,0-3.26,5.23,20.61,20.61,0,0,0-1.35,4.81,7.4,7.4,0,0,1-.11.84c-.29-1-.58-1.94-.88-2.91l-.84-2.69c-.27.1-.54.22-.82.31l-.32.07c.62,1.92,1.23,3.83,1.83,5.75a6.53,6.53,0,0,0-1.62-1.39,11.92,11.92,0,0,0-4.15-1.51,20.44,20.44,0,0,0-5.41-.21,22.85,22.85,0,0,0-9.32,2.88,12.35,12.35,0,0,0-2.37,1.76,6.41,6.41,0,0,0-.69.78,5.19,5.19,0,0,1,.71-.77,10.37,10.37,0,0,1,2.45-1.58A28.41,28.41,0,0,1,81,91.28a27.09,27.09,0,0,1,5.25,0,11.93,11.93,0,0,1,4.13,1.13,6,6,0,0,1,1.77,1.34q2.4,7.75,4.61,15.58l.26,1a12.24,12.24,0,0,0-1.8-2.43,15.51,15.51,0,0,0-5-3.42,23.19,23.19,0,0,0-7.28-1.73,27.53,27.53,0,0,0-7.47.45,23.5,23.5,0,0,0-5.13,1.6l.12.23a30.26,30.26,0,0,1,12.42-1.5,27.33,27.33,0,0,1,7,1.47A15.41,15.41,0,0,1,95,108a11.17,11.17,0,0,1,2,2.49c1.23,4.38,2.39,8.78,3.45,13.21a12.9,12.9,0,0,0-3-3.54,21.66,21.66,0,0,0-6-3.55,32.69,32.69,0,0,0-8.31-2.09,35.19,35.19,0,0,0-8.58,0,25.07,25.07,0,0,0-6.75,1.81,14.06,14.06,0,0,0-4,2.49c-.25.24-.46.45-.62.63.4-2.42.83-4.83,1.31-7.23.28-1.4.58-2.8.88-4.2a8.61,8.61,0,0,1,.74-.74,11.5,11.5,0,0,1,2.34-1.56l-.08-.12a12.48,12.48,0,0,0-2.28,1.67,8.27,8.27,0,0,0-.71.74c.42-2,.87-3.89,1.35-5.84-.08-.2-.17-.4-.24-.6s-.26-.75-.43-1.28q-.63,2.53-1.19,5.08a20.06,20.06,0,0,0-.76-3.24A21.3,21.3,0,0,0,61,96.07a24.33,24.33,0,0,0-2.88-3.29,3.07,3.07,0,0,0-.07.42h0v.51h0a25.65,25.65,0,0,1,2.5,2.71,21.94,21.94,0,0,1,3.4,5.87,17.49,17.49,0,0,1,.92,3.33c-.47,2.16-.9,4.33-1.31,6.51s-.76,4.42-1.1,6.64a3.22,3.22,0,0,0-.13-.63,19.66,19.66,0,0,0-2.11-5.21A28.78,28.78,0,0,0,55,106.37a39.55,39.55,0,0,0-8.3-6.06,42.41,42.41,0,0,0-9.52-3.88,33.7,33.7,0,0,0-8.29-1.22,22.45,22.45,0,0,0-5.6.59l-.62.17q6.67-4.81,13.64-9.19a16.39,16.39,0,0,1,4-.59,21.2,21.2,0,0,1,6.71,1,27.82,27.82,0,0,1,7.43,3.62,27.48,27.48,0,0,1,2.42,1.88,6.4,6.4,0,0,1,.1-.94c-.67-.56-1.36-1.09-2.08-1.58a25,25,0,0,0-7.72-3.54A20.75,20.75,0,0,0,40.33,86a17.13,17.13,0,0,0-3.89.73l2-1.24c3.08-1.88,6.19-3.69,9.36-5.41.42,0,.87-.07,1.36-.07a16,16,0,0,1,4.94.78,21.63,21.63,0,0,1,5.45,2.64l.32-.72a18.08,18.08,0,0,0-5.61-2.48,16.27,16.27,0,0,0-5.11-.44,5.83,5.83,0,0,0-1,.12q5.07-2.76,10.28-5.22a12.6,12.6,0,0,1,3,.33,14.52,14.52,0,0,1,2.48.85l.49-.62a11.63,11.63,0,0,0-5.25-.88q5.63-2.62,11.42-4.91l.56-.5L71,68.85l.35-.17.29-.26.07.08,2.15-1.06-.42-1c-4,1.51-8,3.15-11.88,4.92a11.36,11.36,0,0,0,1.82-3,10.43,10.43,0,0,0,.69-4.85,9.51,9.51,0,0,0-.71-2.82l-.79-.1a11,11,0,0,1,.72,3,11.64,11.64,0,0,1-.46,4.58A11.42,11.42,0,0,1,61.1,71.6h0c-1.4.64-2.81,1.3-4.19,2q-3.88,1.91-7.68,4a14.57,14.57,0,0,0,1.3-2,19.29,19.29,0,0,0,1.86-5.26,20,20,0,0,0,.16-6.85,18.07,18.07,0,0,0-.65-2.73l-.71.23a21.54,21.54,0,0,1,.59,2.62,23.75,23.75,0,0,1,0,6.63A19.17,19.17,0,0,1,50.3,75.5,13.5,13.5,0,0,1,49,77.72q-5.76,3.15-11.32,6.68l-1.27.82a20.05,20.05,0,0,0,1.48-1.83,29.58,29.58,0,0,0,3.66-6.89,33.09,33.09,0,0,0,2-9.37c0-.81.07-1.62.06-2.42-.27.18-.53.37-.79.57,0,.6,0,1.19-.06,1.8A37.2,37.2,0,0,1,41,76.3a29.65,29.65,0,0,1-3.29,7,21.56,21.56,0,0,1-1.63,2.17q-5.82,3.77-11.39,7.9a28.69,28.69,0,0,0,3.38-5,37.68,37.68,0,0,0,3.41-9A41.64,41.64,0,0,0,32.62,67.6,32.64,32.64,0,0,0,30.1,55.91a23.62,23.62,0,0,0-2.58-4.5,20.56,20.56,0,0,0-3-3.32,19.26,19.26,0,0,0-3.06-2.17h0q7.38,1.45,14.68,3.2A13.12,13.12,0,0,1,38.4,51a14.58,14.58,0,0,1,2.09,2.89A17.47,17.47,0,0,1,42,57.71a24.91,24.91,0,0,1,.83,5.22l.71-.54a23,23,0,0,0-1-4.85,17.37,17.37,0,0,0-1.75-3.82,14.56,14.56,0,0,0-2.28-2.85,13.81,13.81,0,0,0-2.13-1.68c2.1.51,4.19,1,6.28,1.57l1.54.41a7.82,7.82,0,0,1-1.37-.09,11.65,11.65,0,0,0,1.44.12h0q7,1.86,13.84,4a11.06,11.06,0,0,1,1.36,1,10,10,0,0,1,1,1.06l.59.08A11.09,11.09,0,0,0,59.55,56a12.6,12.6,0,0,0-1.15-.75c1.69.54,3.35,1.1,5,1.68,1,.36,2.06.72,3.09,1.1l2,.26v-.1l.35.15h.38v.11L75,61l-2-1.78c-3-1.15-6-2.22-9.08-3.31-1.33-.45-2.67-.88-4-1.31a10.11,10.11,0,0,0,2.2,0A10,10,0,0,0,66,53.5c.17-.08.33-.19.5-.29l-.5-.43a3.62,3.62,0,0,1-.32.22,10.31,10.31,0,0,1-3.58,1.43,9,9,0,0,1-2.37.11q-6.16-2-12.42-3.62c.39-.08.79-.16,1.22-.27a27,27,0,0,0,5.87-2.32,31.45,31.45,0,0,0,6.11-4.24l-.41-.68a34.06,34.06,0,0,1-11.63,7c-.52.16-1,.29-1.47.4-1.34-.36-2.69-.7-4-1q-5.3-1.31-10.61-2.41h-.15a24.26,24.26,0,0,0,4.24-.48A35.45,35.45,0,0,0,44,44.42a42.19,42.19,0,0,0,8.3-5A39,39,0,0,0,56,36.11l-.31-.7c-1.2,1.14-2.51,2.26-3.9,3.34a51.87,51.87,0,0,1-8.07,5.12,35.19,35.19,0,0,1-7.29,2.8,20.43,20.43,0,0,1-4.4.66q-5.19-1.08-10.4-2l-2-.34L19,44.73l-.61-.23h0c-.58-.21-1-.34-1.29-.42a18.46,18.46,0,0,1,1.89.67l.46.2c-6.45-1.08-13-2-19.45-2.8,7.07,1.12,14.14,2.3,21.15,3.72a17.94,17.94,0,0,1,3.18,2.38,19.37,19.37,0,0,1,2.87,3.39,24.37,24.37,0,0,1,2.37,4.49A35.2,35.2,0,0,1,31.9,67.5,46.08,46.08,0,0,1,31,79.1a39.17,39.17,0,0,1-3,9.06,26.85,26.85,0,0,1-3.29,5.2C23,94.55,21.42,95.77,19.84,97q-4.32,3.39-8.49,6.92-2.1,1.77-4.15,3.57t-4.08,3.66C4.53,110,6,108.83,7.36,107.69s2.84-2.28,4.27-3.42q4.29-3.37,8.71-6.61L22.64,96l.65-.16a19.82,19.82,0,0,1,5.59-.4A34.5,34.5,0,0,1,37,97a50.65,50.65,0,0,1,9.3,4,46.42,46.42,0,0,1,8.29,5.81A29.31,29.31,0,0,1,60,113a17.75,17.75,0,0,1,2.27,5.11c.07.24.11.45.16.65-.77,5-1.38,10.09-1.86,15.16q-1,11-1.28,22c.5-7.32,1.05-14.63,1.91-21.91.54-4.85,1.19-9.68,2-14.48a7.36,7.36,0,0,1,.63-.62,13.25,13.25,0,0,1,4-2.32,25.88,25.88,0,0,1,6.74-1.42,41.58,41.58,0,0,1,8.42.16,39.1,39.1,0,0,1,8.2,1.85,22,22,0,0,1,6.09,3.18,12.06,12.06,0,0,1,3.11,3.45h0c.36,1.52.69,3,1,4.56.71,3.19,1.37,6.4,1.89,9.62.26,1.62.48,3.24.64,4.87a31.94,31.94,0,0,1,.17,4.89,46.59,46.59,0,0,0-.48-9.8c-.42-3.26-1-6.49-1.61-9.71-.33-1.6-.66-3.21-1-4.8v-.1a24.58,24.58,0,0,1,.73-5.47,30.8,30.8,0,0,1,3-7.58,32.2,32.2,0,0,1,6-7.87A23.55,23.55,0,0,1,119,97.16a17,17,0,0,1,4.22-.94,15.93,15.93,0,0,1,3.78.06,18,18,0,0,1,5.27,1.57l.58.29c1.33,1.29,2.67,2.6,4,3.93q3.86,3.86,7.5,7.9c2.43,2.7,4.8,5.46,7.12,8.25a207.21,207.21,0,0,0-14.17-16.58c-.91-1-1.82-1.87-2.75-2.8-.1-.18-.21-.38-.32-.6a25.24,25.24,0,0,1-2-5.38,43.42,43.42,0,0,1-1.22-8.41,57,57,0,0,1,.44-10.36A43.41,43.41,0,0,1,134.12,64.07Z"/><path class="cls-1" d="M95.71,35.13a19.2,19.2,0,0,1-5.26.84H89.9v.61h.58a19.64,19.64,0,0,0,5.3-1.22A15.22,15.22,0,0,0,99,33.61a11.84,11.84,0,0,0,1-.82,10.15,10.15,0,0,1-1.06.8A13.28,13.28,0,0,1,95.71,35.13Z"/><path class="cls-1" d="M72.77,31.58a15.29,15.29,0,0,1-2.9-2.16,7.59,7.59,0,0,1-.88-1,9.07,9.07,0,0,0,.86,1,18.33,18.33,0,0,0,2.81,2.32,27.12,27.12,0,0,0,4.77,2.58,29.7,29.7,0,0,0,6.39,1.89,26.49,26.49,0,0,0,3.07.36v-.74c-1-.09-1.94-.21-2.93-.39A35,35,0,0,1,72.77,31.58Z"/><path class="cls-1" d="M54.65,30.71a35.09,35.09,0,0,0,3.91,9.15h.07L65.69,51.7l.78-.46-.61.67,11,10v.58L69,59.05l-.37.83.12-.9L56.82,57.41l-.12.91-.1-.82a27.06,27.06,0,0,0-8.88,2.92,29.29,29.29,0,0,0-5.75,4,31.88,31.88,0,0,0-3.08,3.18c-.66.78-1,1.21-1,1.21s.35-.38,1.06-1.07A34.61,34.61,0,0,1,42.26,65a31,31,0,0,1,5.85-3.51,27.79,27.79,0,0,1,8.48-2.29v.07l11.79,1.54,8.76,3.81a6.29,6.29,0,0,0,.53,1.64l-5.88,2.9.41.82-.61-.69L65.44,74.7l.61.68-.59-.57a23.91,23.91,0,0,0-2.7,3.63,39.28,39.28,0,0,0-1.9,3.49,43.05,43.05,0,0,0-2.33,5.92,27.81,27.81,0,0,0-.94,3.91,10.87,10.87,0,0,0-.12,1.4,10.79,10.79,0,0,1,.27-1.34A30.42,30.42,0,0,1,59,88.12a48.33,48.33,0,0,1,2.76-5.59c.61-1,1.29-2.16,2.09-3.28A24.37,24.37,0,0,1,66.6,76l.06.07,6-5.37,3.69-1.82-.09.19c-.07.13-.12.26-.18.39h0c-.09.19-.17.38-.25.57V70l-.4-.44.24.54c0,.07.07.14.1.2A13.09,13.09,0,0,0,75,73.83l-6.71,8-.11.58-2.92,11.1h.12V94l-.13,1.31c.09.59,1.43,4.81,1.91,6.15a21.12,21.12,0,0,0,3.51,6.37,14.51,14.51,0,0,0,3.44,3,10.63,10.63,0,0,0,1.41.76,11.2,11.2,0,0,1-1.29-.87,14.42,14.42,0,0,1-3-3.19,21.3,21.3,0,0,1-2.94-6.34,31.43,31.43,0,0,1-.91-4.31c-.12-.77-.2-1.57-.26-2.4L67,94h0l3.66-12.22,4.42-5.25a12.74,12.74,0,0,0,.27,1.5,13.57,13.57,0,0,0,1.92,4.33,12.83,12.83,0,0,0,3.44,3.41,11.63,11.63,0,0,0,4.6,1.82,11,11,0,0,0,9.32-2.91,11.78,11.78,0,0,0,2.76-4.1,12.64,12.64,0,0,0,.89-4.75,13.45,13.45,0,0,0-.87-4.65,13.63,13.63,0,0,0-2-3.52l3.36.07,10.45,5.7v-.07a17.37,17.37,0,0,1,3.87,2.89A26.5,26.5,0,0,1,116,79.62a29.6,29.6,0,0,1,3.47,6.28,16.48,16.48,0,0,1,1.16,4.42,5.43,5.43,0,0,1,0,1.61,5.62,5.62,0,0,0,.2-1.58,15.6,15.6,0,0,0-.76-4.54,28.4,28.4,0,0,0-3-6.68,25.56,25.56,0,0,0-2.81-3.74,18.29,18.29,0,0,0-4.1-3.39l-.4.72.43-.8L99.48,66.06l-.44.8V66l-5.37-.11a12.72,12.72,0,0,0-2.14-1.51,7.75,7.75,0,0,0-1-.49l4.7-1.21,7-.11v.06l.27-.07h.71v-.12a12,12,0,0,1,3.22.07,20,20,0,0,1,3.81,1A29.53,29.53,0,0,1,116,66.32a28.38,28.38,0,0,1,3.31,2.46,14.14,14.14,0,0,1,1.07,1s-.3-.38-.94-1.07a27.13,27.13,0,0,0-3-2.77,28.31,28.31,0,0,0-5.65-3.43,20,20,0,0,0-4-1.35,13,13,0,0,0-3.57-.32v-.12l-8.08.14v.91l-.23-.88-6.16,1.58,5.94-11.7,8.07-8-.65-.65.71.43a13.75,13.75,0,0,1,3.45-3.8,23.31,23.31,0,0,1,4-2.5,30.75,30.75,0,0,1,12.23-3.06h1.74s-.58-.09-1.7-.15a28.12,28.12,0,0,0-4.94.17,30,30,0,0,0-7.68,2,24,24,0,0,0-4.44,2.39,15,15,0,0,0-4,3.94v0L93.3,49.58l.65.64-.82-.41L87.38,61.16l-.67-.86,2.6-15.17L88.4,45h.92V29.2h-.09a36.05,36.05,0,0,0-.86-9.6,36.71,36.71,0,0,0-2.28-7A24.28,24.28,0,0,0,83,7.28a27.23,27.23,0,0,1,2.58,5.49,39.28,39.28,0,0,1,1.74,6.93,37.77,37.77,0,0,1,.32,9.44l.82.06H87.5V44.93l-2,13.56c-2.39-4.17-4.28-3.35-4.62-3.29,2.38,3.24-2.51,4.77-2.5,1.23-1.1,0-1.62,1.61-1.4,3.1l-9.79-8.92L60,38.55l-.23.14a36.85,36.85,0,0,1-4-8.2,33.47,33.47,0,0,1-1.57-7.07,37.66,37.66,0,0,1-.2-4.63V17.16s-.08.54-.2,1.58a33.94,33.94,0,0,0-.2,4.62A31.49,31.49,0,0,0,54.65,30.71Zm22.89,37.6Zm.07.34Zm-.08-.18h0v0Zm-.06.52h0a.11.11,0,0,0,0,.08h0l0-.07Zm.07.1Zm-.14.27v.08h0a.06.06,0,0,1,0-.08Zm-.1.33.16.29h0l-.18-.13v-.07a.29.29,0,0,0,0-.09Zm.12,7.68h0l-.31-.18h.18Zm0-1.13h.1a1.46,1.46,0,0,0,0,.2h0Zm-.24,1.44.18.24h-.08l-.16-.23Zm-.09-1.47Zm.06-.49H77l-.23-.34.33.35Zm-.48.12.11.18h-.14v-.19Zm0-.32.06-.16.12.24Zm.14.33H77V76h-.1Zm.26.51h0a.09.09,0,0,1-.07,0Zm0-5.72v-.18h0c.06.11.13.22.2.33v.1l-.09-.07Zm.12.5L77,71.06v-.12h0Zm0-2.62Zm-.24.13h0l.17-.08h0L77,68.8l-.07-.11Zm0,.14Zm-.06.77.11-.21v.31h0l-.13-.07Zm0,.67h0v.13h0Zm0,1.54-.12.15v-.23l.08.07Zm-.14-.86a.27.27,0,0,1,0-.19h0v.19Zm.09-.35Zm0-1.34V69.1h0l-.11.34h0c-.13-.09-.12-.15-.09-.22Zm-.06,6.49Zm0-6.17Zm0,1.8Zm0,.2h0v.07a.17.17,0,0,1-.24,0,.21.21,0,0,1-.06-.1Zm.06,3.56h0l-.06.15h0V75.1h.06Zm0,1.56-.14-.07h.12a1.37,1.37,0,0,0-.29.07ZM76.25,72Zm0,.22ZM76.12,71h0v.06h0Zm0,.53v.28l-.12-.1a.94.94,0,0,0,.12-.22Zm-.14.34h0L76,72l-.1-.07Zm0,.07.2.18v.06L76,72a.17.17,0,0,0,0-.1Zm0,.22.24.2v.08h0L76,72.32a.17.17,0,0,1,0-.2Zm-.06.66v-.16l.07.06Zm0-.22v-.2l.19.15-.09.11Zm.21,3.14v-.13l.06.16Zm.09.34h0a.17.17,0,0,1,0-.1V76a.06.06,0,0,0,0,0Zm0-.8h0v.18h0a.55.55,0,0,1,0-.22Zm.06,1.15a1.34,1.34,0,0,0,.07-.18c0,.09.08.17.11.25h-.15Zm.1.31.2.12h0l-.19-.13,0,0Zm0,.16.08.1h0Zm.27.54-.14-.13a.86.86,0,0,0-.07-.21h.1l.08.09v.2c0,.06.07,0,.06,0Zm0-.8h.06v0Zm0,1.28v-.18l.06.06a.19.19,0,0,0,.05.16Zm.07-1.54h-.06l-.09-.11h.19s.09,0,.08.07Zm.09,1.14v-.07l.13.12H77Zm.13,1.07a.21.21,0,0,0-.08-.2h0v.14Zm.27.31h0v-.15l.08.1h0Zm0-.36L77,78.33v-.15h.1l.18.26a.09.09,0,0,1,.11.06Zm.1-.59h-.06l-.09-.15.16.12Zm.08,1.55v-.08l.09.1Zm.06-1.27v-.08h0Zm.06,1.47Zm.7-2.56.09,0h0l-.18-.08Zm0-.26Zm0,1.27h.13v0Zm0,1.21ZM78,76.12Zm0,2.32Zm0-.65Zm0-1.07v0h0Zm-.13.14h0ZM78,76Zm0,2.25h0l-.2-.07v-.11Zm0,1.31h0l-.21-.19h0a.41.41,0,0,0,.11.07Zm-.22-2.13Zm.07-1h-.12v-.16h0l.15.12s0,0,0,0Zm-.15,1.36Zm.47,2.3H78.1l-.31-.23-.07-.12h.14l.33.3Zm0-1,0-.09h.07Zm0-.36h0L78,78.58h.22Zm.06,1.45h.07c.12.11.26.22.4.33h0c-.16-.12-.33-.23-.48-.35.1.07.11.06.11,0Zm.47-2.84h-.16v0l.18.08Zm0,.5Zm0-1.52h0Zm-.2,1.44Zm0,.5V78.2h.07l-.06.16h.09Zm0,1.24h0v0h0Zm0,.5Zm.18.9-.17-.17h0l.13.1h0Zm0-.32Zm0-.31h0l.06.08Zm0-4.15h-.07l-.1-.09h0l.14.07ZM79,81Zm.3-4.76H79v-.08Zm-.21-.19h0l.07.09Zm.26,2c.19.09.37.16.5.21a.55.55,0,0,1-.31,0h-.2a.27.27,0,0,1-.08-.07Zm0-.87h.05a.1.1,0,0,0-.09.06Zm.06-.17Zm.7.9V78l-.37,0h.16l-.13-.09h.06v-.06h-.28l0-.06h0Zm-.3-1h0Zm.76,1.69.18-.18a2,2,0,0,1-.1.38h-.22a.86.86,0,0,1,.1-.16Zm-.08-.19v-.06h0Zm.27-.81c0-.08.1-.15.14-.23h-.08v-.08H81l-.26.33-.12.16v-.13l.06-.09h0Zm.28-.35Zm-.4,3.94h0Zm-.24-.39h0l.26.14h0Zm.16-.47v-.15h.06a1.67,1.67,0,0,1,.08.2Zm.28-2.26-.09.09-.1-.1c.08-.12.15-.24.21-.35l.17-.27Zm.08.4H81l-.15.24a.59.59,0,0,1,0-.2Zm-.14,1.26H81l.17.12h0l-.07.12h-.43s.06-.11.1-.2Zm0,1.21h0l.11.06h0l-.1,0Zm.11-.2Zm0-.31h0l-.12-.21h.11l-.13-.08h.32a1,1,0,0,0-.24.33Zm.35-.29h0a2,2,0,0,1-.07.35H81Zm0-.37-.09-.08v-.08H81l-.13-.11h0l.36.12v.15ZM81,79.31c.08-.18.15-.37.22-.55v-.08l.06-.1h0v.85Zm.14-.93h0L81,78.31v-.13a3.45,3.45,0,0,1,.28-.26c-.11.19-.17.34-.27.5Zm-.41-1a.39.39,0,0,1-.08.1h0a.82.82,0,0,1,.1-.26h.07a.55.55,0,0,0-.16.19Zm0,.88Zm-.15.66h.12v.28l-.16-.06-.07-.06V79Zm0,.44h0v.11h-.26a.54.54,0,0,0,0-.18ZM80.35,81h0Zm-.21-2.43v-.14l.08-.12h0a.17.17,0,0,0,0,.1Zm.09-1.28-.17-.11h0l.18-.1h0a1.77,1.77,0,0,0,0,.23Zm-.13.06.1.06v.15l-.27-.17.08-.1Zm-.13.19h0l.18.07v.1l-.24-.15Zm-.63,2.36h0V80h0Zm0-.46h0s0,0,0,0Zm0-.32H79v-.06h.43Zm0-.35-.3-.16h0v-.06h.12l.42.31h-.17Zm.23.57-.06.16h0a.8.8,0,0,1,.08-.16Zm.16,1.09-.08.09h0a1.74,1.74,0,0,1-.11-.18Zm-.1-.59h0l.2.08V80Zm.2-.32Zm-.1-.88-.24-.19h0a.62.62,0,0,0,.34-.13h.06Zm.14-.39h0l-.22-.12.33.1v.07Zm-.23-1h0v-.07h.09Zm0-.5h-.13l.13.06Zm-.61.67h0v-.06Zm0,2.9,0-.1h.08s-.08.06-.08.09Zm0-1Zm.11.49-.06-.09.07,0s0,0,0,.06Zm0,1Zm.45.62-.22-.07-.19-.21h.08l.34.24.05.1Zm0,0Zm.16-.62h0v0Zm.06-.34ZM80,81h0a.67.67,0,0,1,0-.2h0A.67.67,0,0,1,80,81Zm.12-.93Zm0-.17v-.11h.18l-.12.15Zm.35,1.6h-.11l-.09-.08h0l.25.12Zm.18,1.14Zm.14-.41Zm.09-.57-.2-.08h.18s0,0,0,0Zm0-.28ZM81,83Zm0-1.27Zm0,0h0v0Zm0-.84h0v-.14h.09l0,.12Zm.07.6h0a0,0,0,0,0,.06,0Zm.1,1.44h0l-.07-.09h.11v.1Zm0-5.16-.25.18.12-.49h.07v-.07h.17l.15.14-.14.3h0v-.25s0,0,0,.17Zm-.08-.35Zm0,0Zm.39.35.35-.27c-.14.17-.31.38-.48.62h0Zm-.14,5.37Zm.06-.09L81.24,83v-.11h.18Zm.52-.81h0L82,82h0v.18Zm-.08-1.12h.07s0,0,0-.06Zm-.09-.23v-.12h0v-.1h0a.64.64,0,0,0,.08-.14l.27.2L82,81Zm-.43-.35h0v-.42l.13.1Zm0,.41V81h0Zm.07-.82h0l.06-.23h0l.23.08-.18.32Zm.26.72Zm-.12.17.18.06v.09h-.26Zm.57.2h0l-.09.11a.58.58,0,0,1,.18-.17Zm0,1.31h.06v.13H82c.19,0,.21-.12.24-.19Zm0-1.48.16-.45a1.41,1.41,0,0,0,0,.29l-.08.2ZM82,80.72l-.25-.23h0l.28-.44.2.07h0c.09.14,0,.33-.08.54ZM82.1,80l.12-.2V80ZM82,79.51,82.2,79v.21Zm.16-.77h0l-.23.51-.28.52-.24-.1v0l.71-.92Zm-.68.14-.31-.19.36.08.1,0Zm0,0a5.24,5.24,0,0,0-.28.69h0v-.84Zm-.07,3.72-.14-.11Zm.15.5H81.5V83h.1a.16.16,0,0,1,.13.06Zm0-1h0v.08h0Zm0-.32h0l-.24-.11h0l.33.14Zm-.24-.42v-.08h.32a.25.25,0,0,0,0,.15,1.18,1.18,0,0,0-.07.2ZM82.09,84Zm.07-.22h-.33l-.09-.09h.41ZM82.09,83h0a.17.17,0,0,1,0,.1Zm.12.21h0l.15-.07Zm0-.09h0V83h0Zm0-.81h0v-.09h.07Zm0-.15h0s.21-.09.21-.07Zm0-.11Zm.12.26Zm1-2.72v0l-.2.33h0l-.06-.25v-.24l.18-.48.1.52Zm0,0v.13h0v-.13Zm0,.19-.08.09.07-.16s.18-.07.18,0Zm-.26,1.12c-.06.14-.13.29-.19.47v-.79h0v-.06c.32,0,.34.12.36.26Zm-.09.74.14.06h0l-.14.19-.14.15a1.15,1.15,0,0,0,.31-.52ZM82.65,80l-.09.2v-.65h0v-.19c.14-.22.28-.45.41-.68v.21c0,.07,0,.29.07.45ZM83,82.3h.09l-.09.17Zm-.15.33h0v.1h0a.36.36,0,0,1,0-.1Zm0-1.4h0a.16.16,0,0,1,.07-.16Zm0-.39a.31.31,0,0,0,0,.1v-.07Zm-.21,1.23a.17.17,0,0,1,0-.1h0v-.21h.13a1.6,1.6,0,0,1-.11.4Zm0,.05h0v0Zm.11-2c0,.09-.07.17-.11.26v-.3Zm-.13,3.95.12-.08v.15Zm.19-2.62a1.33,1.33,0,0,0,0,.19h-.13v-.09c0-.09.08-.17.11-.25h.09l-.07.18Zm0,2.66V84h0a.16.16,0,0,0,0,.12Zm0-1v0h-.06Zm.09.33v-.1h0Zm0-3.22h0v-.06h0ZM83,83.5h0a.33.33,0,0,1,0-.14h.07A.35.35,0,0,0,83,83.5Zm.2-.54-.09.24H83v-.3h.25Zm0-.19H83v-.06h.2Zm0-.45v.23h-.13l.18-.35Zm0,1.94Zm0-2.26a1.28,1.28,0,0,0-.11.2H83l.29-.35.06-.07C83.29,81.89,83.24,82,83.2,82Zm.14-.56-.15-.07a1.33,1.33,0,0,1,.1-.34c0-.11,0,.06,0,.08l.06.34Zm0-1.3.22-.27v.21s-.08.14-.18.37Zm.24-.06v.33l-.1.7h0a.94.94,0,0,0-.08-.46c.1-.31.16-.51.16-.53Zm.08,1.62Zm0-.1Zm0-1.55v-.24h0v.24Zm0,1.88h0v-.1a.14.14,0,0,1,0,.17Zm-.16,1.14h0v-.15l.06-.16h0a1.42,1.42,0,0,0-.11.35Zm.11.1Zm0,.73h.06V84Zm.07-1.49v.09l0,0Zm-.16-3.65h0l.37-1-.42.89-.18-.58.14.68h0v.17a.78.78,0,0,1-.13.3v-.11c0-.28,0-.57,0-.85a6.27,6.27,0,0,1-.07.8.21.21,0,0,1,0-.11L83,78.66l.15-.26L83,78.3v.07l-.07-.31v.36L82.5,79v-.33q.06-.18.12-.33l.07-.09c.14-.19.27-.38.39-.58l-.37.42c.1-.29.15-.46.15-.46l-.26.57-.13.15h0l-.07-.84v1c-.19.21-.4.44-.62.71a.9.9,0,0,1,.08-.23h0c.22-.59.41-1,.41-1a3.94,3.94,0,0,0-.49.78l-.39-.14v-.14c.3-.46.56-.86.75-1.13l.18-.13-.14.07.24-.37-.37.43-.38.21h0l.2-.48A2.29,2.29,0,0,0,82.68,75L84,74.43l2.12,5.84a.39.39,0,0,0-.1.08l-.35-.91s.1.38.28,1l-.23.21q-.06-.21-.12-.39v-.18h0c-.17-.59-.26-1-.26-1,0,.34.1.67.17,1a.69.69,0,0,0,.08.38v.44a2.73,2.73,0,0,0-.21.3l-.09-.29a2,2,0,0,0,.1-.21l.17-.4-.35.32h0c.13-.55.19-.88.19-.88l-.24.72c-.1-.35-.19-.67-.26-1-.15-.6-.22-1-.22-1a8.28,8.28,0,0,0,.13,1c.06.34.15.75.26,1.2v.06h0l-.17.19-.06.07a2.9,2.9,0,0,0-.16-.69l.09-.13-.13-.1h0V80c.07-.23.1-.36.1-.36l-.12.3v-.16s0-.33.07-.48c.08-.54.08-.89.09-.89s-.06.34-.18.88l-.06.23c-.09-.32-.16-.51-.16-.52l.13.68c-.07.26-.14.55-.21.86l-.3.16c-.07-.34-.15-.65-.23-.94a.56.56,0,0,1,0-.42v.28a6.43,6.43,0,0,1-.29-.82Zm1.79,4.62h0l-.06-.15h.08a.33.33,0,0,0-.06.19Zm0,.69Zm0,.17a.29.29,0,0,0,.13,0v.06h-.16Zm.06-1.17-.19-.1v-.15l.14.19Zm-.93.58Zm0,.08Zm0-.61a.29.29,0,0,1,0-.13h.16l-.06.26ZM83.93,83v-.16h.13a.89.89,0,0,0,.08.17v.18h-.2c-.12,0-.11-.08-.11-.15Zm0-1.59a.21.21,0,0,0,0-.11l.09-.14h0Zm.19.43Zm0-.06Zm.06.24v.24h0l-.07.09h0V82.3l-.06-.21Zm0,.52.06-.07v.27l-.18-.16Zm.34-2.14a4,4,0,0,0,.13.71l-.21.24c0,.08-.1.16-.16.24V81.3a2.44,2.44,0,0,1,.07-.39c0-.13,0-.12.06-.18s-.06-.17,0-.26Zm-.11-.17v0Zm.44,2.28v.09h.05v.12h-.11Zm0-1.41.07-.09a.49.49,0,0,1-.06.17Zm-.31,1.65v-.09l.13.08v.07Zm.13.09Zm.06.21h.13l-.18.19-.09-.16Zm0-.14Zm0,0v-.06l.15.1h0Zm0-.38a1.87,1.87,0,0,0-.07.22l-.14,0c.08-.25.16-.48.23-.71v.36a.91.91,0,0,0-.11.16Zm-.35-.5L84.21,82a.29.29,0,0,0,0-.13l.24-.35.13-.15v.22c-.09.14-.19.28-.29.41Zm0,0v0Zm-.07,1.34h0v.17h-.13l0-.18Zm.06.38h0v.07H84.3Zm0-1.43.15-.22h0a1.69,1.69,0,0,1-.13.4.21.21,0,0,1-.13-.19Zm.24,1.56Zm0,.25.06,0h0Zm.2-.42h0c0-.06-.07-.13-.11-.2l.1-.11.12.07a.68.68,0,0,0-.26.23Zm0-.32.2-.21h0a1.12,1.12,0,0,1-.08.26ZM85,81.78V81.1a2.86,2.86,0,0,0,.07.28,2.19,2.19,0,0,0-.12.33c0,.1-.1.19-.14.29Zm0-.88Zm-1.26-.37a.21.21,0,0,1,0-.11l.09.47V81a1.24,1.24,0,0,1-.11-.43ZM83.81,84h0v-.07h0Zm0-.37v-.28H84l-.09.31ZM84,84h0l.27.07v.11H84Zm.22.39h0l-.23,0Zm.63.45-.57-.18h.17l.41.14Zm-.44-.38h.34l.07.1Zm.4-.44h0l-.06-.1.07-.11h0l.09-.18V84Zm.11,0Zm0,.18Zm0-1.7v-.29a.19.19,0,0,1,.07-.14,2,2,0,0,0,0,.35Zm.09.85h0l.06.2H85Zm0,.13.09,0v.07H85a.21.21,0,0,1,0-.11Zm0,.26a.21.21,0,0,1,0-.11l.1.06-.09.13Zm0,.5Zm0-.2v0l.15-.17a1.47,1.47,0,0,1-.08.28Zm.06.83Zm.08-.29v-.14l.3.17v.06Zm.27-.7.22.13v.23H85.5a1,1,0,0,0-.07-.35Zm0-.23.07-.25.1.07a.58.58,0,0,0,0,.29Zm.21.79h0v-.06h0l.07.05v.12h-.06a.36.36,0,0,1,0-.1Zm.07.27Zm.28.21-.22-.07H86s0,.06,0,.08Zm0-.26-.23-.1v-.09l.23.14Zm0-.16-.23-.09.24.06Zm0-.15h0s-.07-.09-.07-.08v.07l-.22-.07v-.19l.26.15Zm-.26-.53v-.24l.22.14A1.4,1.4,0,0,0,86,84Zm.29-.29Zm0,.77h0s.08,0,.08,0Zm.26.33Zm0-.55V84h0v.1Zm0,.7h0Zm-.06-1.11-.1-.06h.11s0,0,0,.07Zm0,1.37h-.12a.09.09,0,0,0,0-.07l.27.12Zm.27-.87v-.08l.22.12v.08Zm.07-.5h0l.27.22V84h0l-.12-.17Zm0,.87h0Zm.16.2H86.6v-.08h.16Zm0,0h.06v.13Zm.12-.73v0Zm.09.8-.06-.14a.8.8,0,0,0,.16.08v.1ZM87,84h0l.19.15a4.94,4.94,0,0,0,.42.27,5.12,5.12,0,0,1-.53-.25Zm.34-.31-.09,0h.12a1.15,1.15,0,0,0,.14.17Zm.38.46v.11L87.34,84v-.06Zm-.4-.16v0l-.26-.19h0l.18.11Zm-.14,1v-.07h.08V85Zm.67,0H87.7l.19.08Zm.06-.22-.62-.25h0a1.92,1.92,0,0,0,.48.15H88Zm.1-.35h0v-.12h0v.12Zm.09.43v-.13h0l.06.17ZM91,84h0v-.16l.07.15Zm.09-1.32Zm0,.73Zm.06-1.08v-.06h0Zm.08.55Zm.41.56a.9.9,0,0,0-.11-.28h0l.13.14a.94.94,0,0,0,0,.16Zm-.12-.87Zm.22.32Zm0-.29-.34-.41V82l.25.32.11.17v.17Zm0-1ZM91,78.4l.06.08h0a14.26,14.26,0,0,0-1.45-1.11L91,78.64a1.78,1.78,0,0,0-.3-.17s.2.16.55.41a.19.19,0,0,1-.07.17L91,79l-.19-.14-.26-.15h0a5.67,5.67,0,0,0-.58-.52l.39.44h-.1l.14.11h0l-.19-.14-.14-.1h0v.08l.08.13.08.22H90l-.26-.29v-.07l.21.13-.23-.17-2-5.44,1.33-.48a3,3,0,0,0,1.32,1A3.41,3.41,0,0,0,90,74a5.3,5.3,0,0,1,.54-.39h.23a.13.13,0,0,0,0,.12.73.73,0,0,0,.48.07h.2l.1.1v-.12h0l.28.18c0,.29-.06.55-.07.79l-.27-.07.26.13h0l-.3-.12.27.15h-.15l.11.13h0l-1-.56s.41.3,1.07.72v.59l-.4-.16c-.37-.15-.6-.22-.6-.22l.56.3.44.24v0l.58.29.12.12h-.38a5,5,0,0,1-.62-.4,4.19,4.19,0,0,0,.45.39h-.3c-.76-.43-1.24-.72-1.24-.72s.38.3,1,.73h-.21v.06l.12.12.11.11L91,76.45a6.29,6.29,0,0,0-.67-.37s.25.16.62.45l.79.6-.06.07a2.37,2.37,0,0,0,.27.28h-.22L91.25,77l.36.4-.31-.08H91l.1.09.16.16.14.26a7,7,0,0,0-.77-.4,5.57,5.57,0,0,0-.77-.3s.29.13.73.38l.65.4c.07.12.17.29.3.49h0l-.12.26-.23-.24-.52-.53Zm-.22-4.73a1.4,1.4,0,0,0,.5,0l.09.08h-.12a.66.66,0,0,1-.44,0,.16.16,0,0,1-.06-.08Zm1.59-.76.27-.2.08.08h0l.21.17a2,2,0,0,1-.59.15h-.21Zm0-.19Zm.35-1.61h0c0,.07-.07.15-.1.24h-.06v-.09Zm-.1.14V71.1h0Zm.48.39h0l.19.21h0l-.2-.12h0v-.07h0s0,0,0,0Zm.34-.76a.67.67,0,0,1,0,.2h-.08Zm0-.33Zm.18-.29h0l0,.06Zm0,1.18Zm-.06-1.07h0l-.06-.07h0Zm0-2.1h0v-.06h0Zm0,4,.22.16h0l-.3-.15Zm.23-1.11v.12l-.11-.06v-.13Zm0-.21Zm.61-.31h0l-.07.08c-.06-.09-.13-.17-.2-.26Zm-.4-.47h0l.13.11h0Zm.31-1.32.06-.07.1.11V69Zm.07,2.49a.17.17,0,0,0,0,.1h0Zm.13,2-.06.22h0l-.23-.2a.68.68,0,0,1,.07-.35Zm1.59,1.81v-.06h.06a.18.18,0,0,0-.07,0Zm.09.82v.1l-.1-.07h0ZM96,75h0v-.09h.17V75Zm0,1.48h0v0Zm0,.78Zm0-.79a.09.09,0,0,0,0-.07h.09v.06Zm-.25-.55h-.06v-.09l.15.16h-.1Zm.09,0Zm-.35-2.85h0l.09.06Zm0,.49Zm0-.64h0l.11.15h0Zm0,1.31V74l.23.25-.2.2-.12-.17a.65.65,0,0,0,.14,0Zm.18-.42Zm0-1h0v.07a.56.56,0,0,0,0-.08Zm.28,1A1.33,1.33,0,0,1,96,74c0-.08-.08-.17-.13-.26Zm-.06-.17H96v.06Zm-.1,1.73Zm0-.92-.06.19-.06-.08Zm-.07,1.13v-.09l.13-.09h.08a1.39,1.39,0,0,1-.1.33Zm.3-.85a.43.43,0,0,0,0-.16h0c0,.07.06.13.08.19Zm.09-1.4h-.06l-.15-.22h0A.52.52,0,0,0,96,73c0,.12.1.23.14.35Zm-.15.19-.15.06h0l.06-.18h0Zm-.09-1.31a.11.11,0,0,1,0,.08h0a1.74,1.74,0,0,1-.11-.18h.17l0,.1Zm-.12.38-.11.08h0l-.1-.14v-.07ZM95.68,71a.52.52,0,0,0-.11-.1v-.12l.09.08Zm-.08.44v.22h-.06v-.08l.07-.06Zm-.14.55Zm0,.77ZM95.63,75v.06l-.28-.16v-.06h.06Zm-.08.24v0h.08Zm-.09,1.82v-.2l.06.11Zm0,1.51H95.4s.09,0,.09,0Zm-.93.58h0l-.2-.13v0c0-.1.08-.2.11-.3h0l.23.23Zm.1,1.33h-.08V80.4h0a.41.41,0,0,1,.11.07ZM94,78.71a3.27,3.27,0,0,1-.3-.35l.32.15.1.32Zm0,.57h0l-.2-.15V79S93.91,79.19,94,79.28Zm-.4,1.11-.08-.11h0l.12.1h0Zm0,.67Zm0,0h0v.12h-.1a.32.32,0,0,0,.07-.1Zm0-1.1-.28-.26.21.09.22.07h.06V80Zm-1-.86.25.12h0v.08Zm.12.2h0a2.43,2.43,0,0,1-.2-.25h0a1.12,1.12,0,0,0,.14.27Zm0,1.23a1.15,1.15,0,0,0,.14.17l-.17-.18Zm.13-.13-.11-.13.15.14Zm0-1.36c-.15-.12-.29-.26-.43-.39h0L93,79h-.09Zm-.49-.18V78.8l.11.11Zm.07,1.61h0l-.06-.06h0s0,.07,0,.08Zm.77-5.89-.31-.16v-.17l.54.46h0l-.2-.11a1.54,1.54,0,0,1-.17-.19.83.83,0,0,0,.1.19Zm0-2.24h0s-.07,0-.07,0Zm0,.77Zm0,.25.14-.09.4.39v.12h-.35l-.31-.18a.49.49,0,0,0,0-.17Zm.09-.66h-.09v-.07Zm0-.3Zm0,.34.13.19-.11.11h0l-.17,0v-.17Zm.77-.66h0l-.08.1a.3.3,0,0,0,.08-.08Zm0-.93h0v0Zm.08,1.75h0v.4l-.08-.07a1.13,1.13,0,0,1,.06-.31Zm.24,2-.12-.11h0Zm0-1Zm.07,1.81h0l.06.06v.06h-.12s0-.13,0-.15Zm0-1h.1l.09.06v.11Zm0,1.32h.16l-.16.06-.11-.15Zm0,1.9c-.06-.12-.12-.23-.17-.34h0l.19.16Zm0,.76h0Zm-.44-1-.21-.12a.57.57,0,0,0-.11-.11.19.19,0,0,1,0-.13l.32.11v.06A.16.16,0,0,1,94,77.71Zm0,.47h0Zm-1.65-.81.13.07.19.1h0l-.14-.1Zm0,.25h0l-.3-.24Zm.54-.87Zm.08.3.23.25-.34-.19h0L93,77Zm.39.58-.57-.3h0Zm0,.05-.61-.29h0Zm0-.45.2.09v.08Zm.06.72.13.09,0,0h0Zm0-.28Zm-.63-.06.11.17-.22-.15v-.06Zm.29.6-.4-.29h.13Zm-.41-.9Zm.06,0-.13-.06h0l.18.1Zm-.15,0-.1-.07.08.05Zm0,.75.49.41-.53-.3a.53.53,0,0,0,.08-.17Zm.47.24.13.09h0Zm0-.54.29.14h0V78h-.12l-.09-.24Zm.21.72.15.11.18.18h-.07l-.26-.24Zm.27-.72h0a.11.11,0,0,1,.08,0h-.08ZM93,76.9v-.16l.47.11h.06l.23.2v.07Zm0-.61-.13-.1H93Zm0-2.79v.09l-.21-.12.24-.1v.08l-.07.08Zm0,.59.44.14.16.15v.18l-.38-.27L93,74.18a.41.41,0,0,0,0-.09Zm.54,1.12h0s0,0,0,0Zm.08-1.29h0Zm0,1.09h0Zm.2.44.08.12-.22-.07-.07-.07Zm.5,0a.47.47,0,0,0,.1.1h0l-.15.06h-.11Zm0-.4v0l.08.08Zm-.41,1.58-.13-.22.14.07.17.08-.06.1-.14,0Zm.11.51h0Zm0-1.3h0l.09.13L94,75.85Zm0-.38h.27l-.19.11Zm.21.85v.09h.05Zm-.12.33.12.1H94a.3.3,0,0,1,0-.1Zm.13.1Zm0-.34v-.09l.23.23Zm.23-.69Zm-.19-.61h0L94,74.94l.09-.06a1.07,1.07,0,0,1,.16.14v.08Zm-.13.16h-.26v-.05Zm-.35.57h0l-.25.08h0Zm.1.1.29.29H94L93.57,76Zm-.19.51.1.21-.19-.06-.11-.09ZM94,78.12h0L93.7,78h0l.13.06s0,0,0,.06ZM94,77l.27.07v.11Zm.35,1.13h0l-.14-.08h0Zm.11-.75-.1-.09-.08-.06.06-.14.23.06h.05l.12.11-.08.18Zm0-1.2h.15l-.06.17Zm.17.23a.25.25,0,0,1,.08-.18,1.74,1.74,0,0,0,0,.22Zm0-.76.1,0h0Zm.25-.39h0l-.06.17h0l-.11-.11h0Zm-.12-.14h-.1L94.6,75a.23.23,0,0,1,.06-.15l.09.07h.06l0,.07Zm-.16,1Zm-.42-2.3h0l-.1-.14h0l.13.13Zm0,.43Zm0,.4h0l-.09.06-.25-.21h0ZM93.83,74H94l.09.1-.1.11h-.1a1.25,1.25,0,0,1,0-.3Zm0-.86h.09v.1a.34.34,0,0,0-.09-.19Zm.1-.84h0v.07a.76.76,0,0,0,0-.16Zm.1-.4-.17-.12L94,71.7l.11.06Zm0,.2-.06.09-.11-.08.18-.06Zm-.16.4h0ZM94,74.79l-.1.08-.24-.2h0l.11-.09Zm-.91-1.86Zm0-.31h-.26l.09-.1.18.07Zm0,.08v.15H93l-.19-.12-.07,0h0ZM93,73v.14l-.35.12h-.14l-.37-.22h.17A2.36,2.36,0,0,0,93,73Zm-.42.48.27.26-.58-.07h-.19Zm.28.57v.08L92.64,74Zm.61,1.59.1.09-.23.13-.09-.07.06-.21Zm-.19-.46Zm.2,1.17-.21.07-.17-.13V76.2Zm-.34-.64-.32-.23-.32-.23c.21.09.43.19.69.28a.36.36,0,0,1,0,.18Zm-.39-.14.31.27-.79-.42c-.11-.09-.23-.19-.33-.29l-.08-.08h.18l.3.14a5.2,5.2,0,0,1,.44.38Zm-.94-.7Zm.24.6.37.28.52.32h-.09c-.42-.31-.7-.49-.69-.5s.31.31.82.77h0l-.28-.11-1-.42v-.57Zm.58,1h-.1l-.07-.06Zm0,.25-.16-.08h.11Zm.17.26v.1l-.9-.5h.27c.23.12.45.24.7.39Zm-.33.17h0L92.25,77h0l.15.11-.4-.21-.27-.2-.13-.11-.08-.07h.1Zm-.82.52v-.07h0l.2.22Zm.24.44-.32-.22h0Zm-.25-.44-.14-.08h0l.2.06h0Zm-.09.18h0l-.13-.14Zm-.1.23v.09l-.3-.37a2.11,2.11,0,0,1,.27.18l.1.07Zm0,0c.13.21.28.42.43.62h0l-.45-.53Zm.52,1h0l-.15-.1Zm0-.67.29.28v.06Zm.22,2.49.06.1h0l-.09,0s0,0,0-.07Zm0-.62v-.07l0,.07ZM92,77.68h.23a2.75,2.75,0,0,0,.26.22V78Zm.5.84-.08-.06h0Zm-.17-.14Zm.55,1.22.14.16h0l-.12-.14Zm0-.15v-.06l.22.17Zm.24-.69h0l.14.08.34.18v.07Zm.2.78-.12-.1h.06Zm.29-.27ZM94,77.72a1,1,0,0,1,.07-.15l.12.25Zm.06.74.15.05h0L94,78.44Zm.12.14v0Zm0,.73.1.12v.07h0l-.12-.16Zm.23.94v.06l-.09-.11Zm-.1-.36h0s0,0,0,0Zm.08-.76ZM94.66,78l.06-.18c.1.1.21.18.3.27v.07ZM95,79.3l.06.11H95Zm-.12-1.62.33.07-.08.18Zm.05-.34.12.11v.06h-.16a.53.53,0,0,1,0-.17Zm0-.67H95v.12Zm.25-2.44h0v-.07h0l.18.25h0Zm0,.44v0Zm0,2v.22h-.06a1.1,1.1,0,0,1,0-.18Zm-.07.83h0Zm.09,1.28h.07l-.08.27h0l-.09-.1s0-.06.06-.13Zm0-3.14v-.15l.1.14h-.1Zm.08,2.88h0v.09h0Zm0,0Zm0-.54h0v-.12h0Zm0-2.86h0Zm0-1.06L95.3,74l.14-.09Zm-.11-.2h0l.09-.11h0Zm0-1.9Zm0,.72Zm0,1-.1.12h0v-.06a.87.87,0,0,1,.07-.17ZM95.16,73h-.09l.06.08Zm0,3.34a.75.75,0,0,1-.11.28h-.14l-.1-.14a1.37,1.37,0,0,1,.13-.39ZM95,73.5v-.06h0Zm-.07-.58v-.26H95l.06.1a.91.91,0,0,1-.11.16Zm0,1.68Zm0-.23Zm0-2.17h0v-.06h0l-.08.06Zm0,1.76h0l-.21-.18.17,0h0a2.51,2.51,0,0,1,0,.27Zm-.31-.27h0v-.06l.09-.11h0a1.37,1.37,0,0,1-.17.17Zm.23.5-.1.09h0c-.07-.09-.13-.19-.2-.29v-.06h0Zm-.55-2.31h0v-.15h0Zm0-1.25Zm0-1.59ZM94,70.21Zm0-2.07a.3.3,0,0,1-.08-.08H94Zm0,2.7h0l-.09.09h0a1.84,1.84,0,0,0-.17-.22v-.13Zm-.19.69h0l-.09.06h0Zm.1.41h-.18v-.18Zm-.1,1.51h0l-.14-.13-.18-.14h0Zm-.29-.7h0Zm.19-.31Zm0-.44h0l-.1-.07.11-.09Zm-.39-.66h0v.33a1,1,0,0,1-.2-.15h0a1.14,1.14,0,0,0,.09-.26Zm-.17.64L93,72.1l-.11-.1h0l.08-.17a1.15,1.15,0,0,0,.14.17Zm-.2.17h-.1l.07-.16Zm-.15-.26a.27.27,0,0,0-.07-.08l.09-.12h0Zm0,0h0l-.14-.07.06-.08Zm-.16,0,.15.11v.21l-.24-.08V72l0-.09Zm0,.43-.18.07v-.13Zm-.42.76.32.25-.42.14.06-.38Zm.38.86.36.28v.18l-.45-.23L92,74h0v-.1Zm-.17.32,1,.61h0V75h-.3c-.58-.51-1-.83-1-.83s.29.32.76.81c-.2,0-.41,0-.61-.06l-.19-.06h-.17a5.63,5.63,0,0,1,.1-.74Zm-.49-.39-.23-.12H92a.25.25,0,0,1-.06.16Zm0-.36h-.35a1.27,1.27,0,0,0,.39-.3.49.49,0,0,1,0,.34Zm-.17.06ZM91.28,79h0l.17.22a1.51,1.51,0,0,0-.22-.11A.37.37,0,0,1,91.28,79Zm.18-.33h0l.09-.26c.07.09.13.19.21.29h0l.07.06A2.47,2.47,0,0,0,92,79Zm.39,4.9v-.09h0ZM92,82.1h0V82h0Zm-.07-.57h0l.08.1Zm.25.85h0v0Zm0-1.08h0l-.07-.08h0a.39.39,0,0,0,.08.1Zm0,1.9v0Zm.18-.06Zm.3-.23h-.24l-.18-.28-.09-.4h0c.2.26.39.49.51.66h0s0,0,0,0Zm.14-.12h0a2.23,2.23,0,0,0-.33-.58h0l.19.17.07.09.08.08v.08c0,.08,0,.11,0,.16Zm.17-1,0-.13.13.11Zm.13,0a1.45,1.45,0,0,0-.17-.18l-.3-.35c0-.08-.07-.16-.1-.25l.11,0,.1.11.3.27a.43.43,0,0,0,.08.29Zm.1.32h0a.33.33,0,0,1,0,.14ZM93.32,81c-.08-.12-.17-.24-.26-.35h0l.27.17.08.08v.16Zm.11.88a.62.62,0,0,0-.07-.19h0l.13.14.13.16Zm.19-.37-.06-.12h.11a.45.45,0,0,0,.07.29h0A1.13,1.13,0,0,1,93.62,81.51Zm.18-.87h0a.09.09,0,0,1,0-.07l.1.12Zm.06-1.27h.07S93.86,79.39,93.86,79.37Zm0,1h.07v.07a.27.27,0,0,0-.07-.08s0,0,0,0Zm.06,1.3v-.12H94Zm.18-.39Zm0-.1L94,81v-.09h.13l.07.11v.06Zm.11-1.37h0l-.07-.07Zm0,.94a2,2,0,0,1-.08-.26h.14Zm.11.34Zm.15-.21h-.09l.06-.17.09.11Zm.1-.16v-.1h.1Zm0-2.45.22.09h0l-.19-.08a.08.08,0,0,0,.09,0Zm0,.07.17.07v.09l-.09-.07Zm.08,1.42h0Zm0,.65-.07-.21h.1v.06Zm.17-.28.11-.13h.13Zm.19-.37v.1H95l-.24-.21h0l.32.13h0Zm.08-.23c0-.09-.08-.18-.13-.27h0l.15.11.17.14Zm.08-.23-.1-.1h0v-.06h0a1,1,0,0,0,.07-.15h.15c.16,0,.12.16.07.29Zm.2-.53h-.13v-.09h.07v.09a2.11,2.11,0,0,1,.25,0Zm0-1.1Zm.07-.14-.08-.09h0l.11.06Zm-.07-.92h0Zm.06.64Zm0-.67h-.07l-.12-.15a.38.38,0,0,0,0-.15h.15Zm.1.43.09.1v.12a.87.87,0,0,1-.07-.17l.18-.06Zm.09,1.11.11-.12v-.11h.11Zm0-.4h0v0Zm0-.75-.09-.11.12-.3h0v.24Zm.1.78h0v-.13l.09,0Zm.08-.22h0l.07-.09Zm.1-.39-.09.09h0l.1-.22v.06a.4.4,0,0,1,.24.05Zm0-.15v-.15h0s.29.08.28.16Zm0-.19h0a.16.16,0,0,0,.17.15.15.15,0,0,0,.16-.17h0Zm0-.85h-.08a1.18,1.18,0,0,1,.1-.3.22.22,0,0,1,0,.08,2.09,2.09,0,0,1,.22.2Zm.12.32h0a.14.14,0,0,0,.15.13.13.13,0,0,0,.14-.15Zm.11-1.06a.33.33,0,0,1-.07.24H96v-.32l.07-.06h0a1.12,1.12,0,0,1,.35.12Zm.16-.21Zm.16-.16h0v0Zm0-.46h0a.51.51,0,0,1-.07.3h0l.06-.24a.32.32,0,0,1,0-.1Zm-.13.06a.33.33,0,0,1,0,.14l-.11-.15a1.69,1.69,0,0,1,.13-.42l.11.15Zm0-1.6Zm0,.32v-.29h0a.81.81,0,0,0,0,.22l-.06.19h0a.16.16,0,0,0,0-.16Zm0-.35-.09-.06h0v-.06h0l0,.08Zm-.09-.32Zm0-.25h0l-.08.06Zm0,.56h.11V73c0,.07-.07-.14-.1-.2h0Zm0-.15h0v-.09h0Zm0-1Zm0,.15a.39.39,0,0,1-.08.28v-.32ZM96,71v0Zm0,.21h0l.1.08a.67.67,0,0,1,0,.2h-.08L96,71.38V71.1Zm-.13.68a2.33,2.33,0,0,0,.07-.25l.18.12a.69.69,0,0,1-.06.32l-.2-.14Zm-.06-1.14h0v0h0ZM95.68,70h0v.09L95.52,70s0-.07,0-.08Zm0,.39v-.13l.17.16-.06.12h-.13s-.17-.19-.16-.23Zm0,.37,0,.06v.11h0a.72.72,0,0,1-.27-.25Zm0,.59.08.06h0l-.09.08h0a1.1,1.1,0,0,1-.21-.22Zm-.08.57Zm0-.64h0v.2h0c-.27-.16-.26-.22-.24-.28Zm-.13-2Zm0,.8h0v.23l-.08-.09V70.1Zm0,2Zm0-.18Zm-.06-2.23h0a1.36,1.36,0,0,1-.25-.11Zm-.09.91h.09l-.07-.06Zm.09.61h0a.35.35,0,0,1,0-.08Zm.07,1.4-.08.14h0a1.43,1.43,0,0,1-.14-.2v-.16ZM95,71.71h-.1l-.09-.13h0v-.06a1.37,1.37,0,0,0,.2.13Zm-.23-.55Zm0-2.51.22.21A.33.33,0,0,0,95,69l-.19-.18h0a.49.49,0,0,0,0-.17Zm0,1h0v.07h0a.34.34,0,0,1,0-.1Zm-.06,3.63Zm0-.47-.09-.06h.13l-.08,0Zm0-.13h-.24l-.09-.08h0l.15-.13.16.1a.28.28,0,0,1,0,.08Zm-.21-.54h0v0Zm.13-3.61h0v.06h0Zm0,.53.06.06v.07l-.09-.08a.11.11,0,0,1,0-.11Zm-.1,1L94.47,70v-.19l.06-.06a.52.52,0,0,0,.1.11.86.86,0,0,1-.13.14Zm-.13-2.33h0a.86.86,0,0,1,.1.16l-.16-.12,0-.09Zm-.15.46h.14l.15.16h0l-.23-.24Zm0,.46v0l-.07.07a.49.49,0,0,0,0-.17Zm0,1.71Zm-.06-1.76h0v.1h0a.29.29,0,0,0-.09-.15Zm0,.7h0v.09l-.07-.12Zm0-1.52h0v.15h0a.57.57,0,0,0-.11-.11Zm-.19.86h-.12v-.12h0l.12.16Zm0-.21Zm0-.53Zm-.38.1h.07v.06h0l-.1-.07Zm0,.24.06.1a.78.78,0,0,1-.05.14h0v-.24Zm0-.56Zm-.16,0h.12a.24.24,0,0,0,.06.11h0l-.2-.06Zm-.62-1.84Zm-.4,1.86h0Zm-.14-1.94.13.07h-.14a.16.16,0,0,0-.05-.09Zm-.3-.35h0Zm-.12.19h0l.19.11h.1v.1h-.1l-.17-.11h0v-.1Zm-.27-.15h0l-.1-.07Zm-.15.2h.14v.07h-.13Zm-.14-.76-.54-.29-.49-.39Zm-.17.72h-.08v-.12l.13.06h0Zm-.26-.22v.11l-.34-.19h0a.11.11,0,0,1,0-.08h-.07L90,65l-.12-.08H90l.24.12a5,5,0,0,0,.69.35Zm-.24.28h0l.17.1h0Zm.13.09h-.12v-.07Zm-.37-.11Zm-1-1.5.31.16h0l.25.21-.26-.14h0l-.47-.24Zm.24,1.6Zm-.51-1h.17l.09.06-.26-.1Zm0,.94H89v-.06Zm-.25-.09h0v.1l-.12-.06Zm-.14-1.15Zm-.12,1.06h0Zm-.12-1.16Zm-.09,1.09Zm0,.2Zm-.2-.08Zm-.1.15Zm-.16-1Zm-.12.22h0L88,65Zm.11.74Zm-.22-1.06.14.06h-.2Zm-.09,3.84a3.36,3.36,0,0,1,.19-.72v.35c0,.1-.16.3-.2.42Zm.11.19h0s0,.07,0,0Zm0-3.76Zm-.06.63v.06h-.09v-.06ZM87.53,68l.06-.17.12-.27h0l-.21,1v-.19A1.46,1.46,0,0,1,87.53,68Zm-.06.75v.11l-.35.13h0l.08-.16.17-.36v.4a.65.65,0,0,1,.06-.23Zm-.15-1.19h0v.11a.47.47,0,0,0,0-.13Zm.07-2.09h0l-.16-.06h0Zm-.14,2.46-.06-.1v-.1a1,1,0,0,1,.06.18Zm0-3.49v.06h0Zm-.12,1.27Zm0,3s.06-.31.11-.73c0,.06.07.12.11.17h0c-.08.23-.16.44-.23.62h0v-.12l-.05,0ZM87,65.3Zm0,1.26h0v0Zm0,2.21V69l-.26.1.05-.17h0a4,4,0,0,1,.15-.65A3,3,0,0,1,87,68.77Zm-.19-1.56Zm-.09.31v.35h0v-.34Zm0-3h0s-.06,0,0,0Zm0,3.45V68h0v.08a6.38,6.38,0,0,1-.11.88l-.12.2h0l.1-.46v-.06l.07.18-.06-.23v-.29l.06-.43Zm-.08,1.08v.08h0Zm-.19-1.33h0v-.25l.13-.14h0v.21Zm0,1.47h0v0ZM86.38,68v.14h0V68Zm-.17-4v.08h-.09l.08-.07Zm-.11,0Zm-.07.06h0L86,64Zm-.16-.5.09.09-.17-.12Zm.15.37v.12l-.26-.28v-.09Zm-.68.34.08.06h0l-.09-.07Zm-.16-1,.14.21L85,63.3Zm-.59.17.06.07v.11h-.07Zm.12.66v.12l-.12-.1V64Zm-.2-.65v.1h0l0,0Zm-.06-.11Zm-.06.52V64h0v-.14Zm-.07-.06h0v.07h0Zm0-.61v.07h0v.1l-.08-.07v0Zm-.19.49-.13,0h0v-.07l.14.13-.06.05Zm-.21-.47h0l.06.07h0l-.09-.06Zm-3.11,2h.11l.09.11h0l-.21-.14ZM80.67,65Zm-.09.17Zm-.21.26h.08l-.1-.07h0Zm-.3-.17.11.06h0L80,65.23ZM80,66.7h0l-.06.09h0Zm-.11-.11Zm-.16-.09Zm-.06,1.84-.09.1c-.07-.08-.15-.15-.2-.2l-.1-.09h0V68.1l.26.14h.08Zm-.18-2.12.08.07h0Zm.07-.76h0v.06h-.14Zm-.26.24h0l.25.31h0l-.33-.27s0,0,0,0Zm-.1.54.14.15h0l-.17-.11v0Zm-.06,2.35h0v.09h0a.37.37,0,0,1,0-.09Zm-.28.61h0v.06h0a.09.09,0,0,0,0-.07h0Zm0,0Zm0-.6h0c-.06,0-.11-.12-.17-.18v-.07l.13.17v.07h0Zm-.12.55h0l-.06-.06Zm0-.88h0l.2.18h0l-.19-.16Zm.2-.14.06.06h0Zm0-.47h0l.06.07ZM79,69h.09v.07Zm0-.39ZM78.89,66l.11.13v.06L78.88,66a.64.64,0,0,0,0-.07Zm-.06,2h0l.06.06h0l-.1-.09Zm-.16-1.33.16.19h0l-.09-.09-.06-.11Zm0,1.12a.23.23,0,0,1,.07.07h0Zm-.08.25.1.1h0l-.11-.1s0,0,0,0Zm0,0,.11.13v.08l0-.06-.06-.08-.06,0Zm0,.91.15.2-.11-.12L78.46,69h.13Zm-.08.5-.06-.09.19.15h0l-.1-.06h0Zm0-.53-.09-.1.09.08Zm0-.54Zm-.11-.53h.06V68l-.14,0Zm-.08.28.06.07h0l-.06-.06Zm.18,1.55-.09.11h0a.35.35,0,0,1,0-.08h0v-.07h0Zm-.28.28Zm.06,2.65v-.11c-.1-1.11.19-1.89.8-2.14h.4a2.18,2.18,0,0,1,1.52,1l.08.12,2-.72-.7-1.93h-.45c-1.21,0-1.6-.52-1.72-.83V68c-.19-.62.22-1.34,1.14-2l.09-.06v-.12c-.1-1.11.19-1.88.8-2.13h.09a.81.81,0,0,1,.31,0,2.22,2.22,0,0,1,1.67,1.17l.07.1h.11a2.94,2.94,0,0,1,.42,0c1.2,0,1.59.51,1.72.81v.09c.2.61-.17,1.29-1,1.92l-.11.09.7,1.94,2-.72v-.15c-.07-1.06.22-1.78.81-2h.09c.63-.2,1.35.22,2,1.13l.07.09h.53c1.21,0,1.6.52,1.72.82v.1c.2.62-.22,1.34-1.13,2l-.09.07v.11c.1,1.13-.19,1.89-.8,2.14h-.09a.86.86,0,0,1-.32,0,2.17,2.17,0,0,1-1.6-1.08l-.08-.12-2,.72,2.36,6.48h.45c1.2,0,1.6.52,1.72.83v.09c.2.63-.2,1.33-1.13,2l-.09.06v.11c.09,1.12-.2,1.9-.8,2.14h-.09a.86.86,0,0,1-.32,0,2.21,2.21,0,0,1-1.66-1.17l-.07-.1h-.54c-1.19,0-1.58-.51-1.71-.81V82.5c-.2-.61.17-1.29,1-1.92l.12-.09L84.22,74l-2,.72v.15c.07,1.06-.22,1.78-.81,2h-.09a.86.86,0,0,1-.32,0,2.22,2.22,0,0,1-1.66-1.18l-.07-.09h-.53c-1.2,0-1.59-.51-1.72-.82v-.09c-.2-.62.21-1.35,1.13-2Zm2.87-2.18.17.27a3,3,0,0,1-.77-.61l.06-.07Zm-.37-.61Zm1.66.16.07.21h0a.29.29,0,0,1-.14-.08l-.09-.08c-.06-.12-.11-.24-.17-.35L82,69.58h.06l.08.07Zm-.28-.65.07.06v.14a.4.4,0,0,1-.14-.17Zm.36.86.12.34h-.13v-.12l-.08-.18-.07-.15h0a.44.44,0,0,0,.16.06Zm-.3.49-.22.08c0-.12-.13-.34-.26-.63h0a4.67,4.67,0,0,0,.41.58Zm-.24.08H81.9l-.12-.22-.14-.21c-.09-.14-.18-.29-.28-.43l.2.11h0v.06Zm-.2-1.08-.07-.08a.23.23,0,0,0-.07-.07h0v.06l.07.12Zm-.16-.17-.22-.23-.06-.1h0a3.17,3.17,0,0,0,.3.34Zm-.21.23-.17-.1-.11-.06h0v-.08l.11-.14Zm-.21.26.1.08c.08.11.17.23.24.34l.16.25.08.15h0a8.3,8.3,0,0,1-.64-.69l-.15-.3Zm.48.88Zm-.23-.12-.08-.17.13.09.11.13a.58.58,0,0,1-.23,0Zm-.1.23Zm5-3.19Zm0,.75v.22l-.07-.18v-.17Zm-8.5,1.61-.06-.09V70h0a1.77,1.77,0,0,1,.16.22h0Zm.23-2.16v.06h0Zm-.13.07h0l.08.13h0l-.1-.09s0,0,0,0Zm0,1.62h0v.08h-.09l.07-.08Zm0-.81h0l-.07-.06Zm0,.29h0v0Zm-.07.35h0l-.07-.1Zm0,1-.06.07-.08-.13Z"/><path class="cls-1" d="M78.84,69.18Z"/><path class="cls-1" d="M93.42,76.89h0V77A.15.15,0,0,1,93.42,76.89Z"/><path class="cls-1" d="M93.42,77h.07a.15.15,0,0,1,.13,0,.15.15,0,0,0-.13,0Z"/><path class="cls-1" d="M77.21,74.71c.21.57,1,.82,2.15.67h0c.62,1,1.32,1.43,1.89,1.22s.82-1,.68-2.1h0l2.35-.85,2.49,6.86h0c-1,.62-1.38,1.3-1.17,1.86s1,.83,2.14.68h0c.52.81,1.09,1.26,1.6,1.26a.71.71,0,0,0,.29,0c.58-.22.82-1,.67-2.15h0c1-.63,1.43-1.32,1.22-1.9s-1-.81-2.1-.68h0L87,72.67l2.36-.85h0c.62.94,1.32,1.37,1.87,1.17s.82-1,.67-2.15h0c1-.62,1.43-1.31,1.22-1.89s-1-.82-2.15-.67h0c-.62-1-1.33-1.42-1.89-1.22s-.82,1-.68,2.1h0L86,70l-.84-2.31h0c1-.62,1.38-1.3,1.17-1.86s-1-.83-2.15-.68h0c-.62-1-1.33-1.42-1.89-1.21s-.83,1-.67,2.14h0c-1,.63-1.43,1.32-1.22,1.9s1,.81,2.1.68h0L83.36,71,81,71.83h0c-.61-1-1.3-1.38-1.86-1.18s-.83,1-.68,2.15h0C77.44,73.44,77,74.13,77.21,74.71Zm1.06-.61a2.93,2.93,0,0,1,.65-.51,1,1,0,0,0,.43-.93,3.75,3.75,0,0,1,0-.82l.06-.45.34.3a3.2,3.2,0,0,1,.49.61,1,1,0,0,0,1.12.38l2.29-.83a1,1,0,0,0,.57-1.22l-.81-2.25a1,1,0,0,0-1-.62,2.55,2.55,0,0,1-.78,0l-.45-.06.31-.33a3.11,3.11,0,0,1,.63-.52.94.94,0,0,0,.44-.92,3.84,3.84,0,0,1,0-.83l.06-.45L83,65a3.12,3.12,0,0,1,.51.64,1,1,0,0,0,.93.43,3.75,3.75,0,0,1,.82,0l.45.06-.31.34a3.14,3.14,0,0,1-.6.49A.94.94,0,0,0,84.33,68l.82,2.25a1,1,0,0,0,1.21.57L88.65,70a1,1,0,0,0,.62-1,3.39,3.39,0,0,1,0-.78l.06-.45.34.31a2.87,2.87,0,0,1,.51.64,1,1,0,0,0,.93.43,3.75,3.75,0,0,1,.82,0l.45.07-.31.33a2.92,2.92,0,0,1-.64.52A1,1,0,0,0,91,71a2.82,2.82,0,0,1,0,.82v.45l-.34-.3a3.2,3.2,0,0,1-.49-.61A1,1,0,0,0,89,71l-2.29.83A1,1,0,0,0,86.14,73l2.46,6.8a1,1,0,0,0,1,.62,3.39,3.39,0,0,1,.78,0l.45.06-.31.33a3.55,3.55,0,0,1-.64.52,1,1,0,0,0-.43.92,3.84,3.84,0,0,1,0,.83l-.06.45-.34-.31a2.92,2.92,0,0,1-.52-.64,1,1,0,0,0-.92-.44,2.82,2.82,0,0,1-.82,0l-.46-.06.31-.34a3.2,3.2,0,0,1,.61-.49.94.94,0,0,0,.37-1.12l-2.46-6.8A1,1,0,0,0,84,72.79l-2.28.83a1,1,0,0,0-.62,1,3.39,3.39,0,0,1,0,.78l-.06.45-.33-.3a3.3,3.3,0,0,1-.52-.65,1,1,0,0,0-.92-.43,3.75,3.75,0,0,1-.82,0l-.45,0Z"/></svg>