<svg id="Layer_1" data-name="Layer 1" xmlns="http://www.w3.org/2000/svg" viewBox="0 0 144.97 101.71"><defs><style>.cls-1{fill:#fff;}</style></defs><path class="cls-1" d="M88.16,51.27a67,67,0,0,0-12.81,2C72.7,54,70,54.84,67.16,55.83c-3.1.49-6,1.12-8.37,1.62-7.39,1.76-19.2,7-28.28,4.89C18.89,60,14.53,41.93,27.4,39.26c13.82-2.88,15.86,14.47,6.7,15.89a7.44,7.44,0,0,0,3.07-8.21c-2.33-6-13.85-4.95-14,2.23-.08,3.5,3.08,7.72,7.77,8.48,9.6,1.67,20.83-6.82,38.75-8.91C60.83,46.42,52.1,45.48,51,37.33c-.2-1.4.48-4,2.14-4.88,0,0,.25-.09.26,0h0l.5-.1-.45.2h0a4.43,4.43,0,0,0-1.09,3.52C53.92,46.91,75.91,39.7,88.16,51.27Z" transform="translate(0 -0.05)"/><path class="cls-1" d="M105.94,47.8c-1.5-1.56-3.08-3.08-4.72-4.55A52.83,52.83,0,0,1,118,37.91c-1.82-1.7-5.7-9.53-4.64-16.26C108.31,9.59,88.5,3.42,83.41,2.11,110,4.22,117,20.49,117,20.49c-.17,9.28,5,15.45,8.23,18.55,4.88-13.82,13.45-8.16,14.54-4.22s-1.17,7-4.27,6.92c3.91-1.31,1.82-6.42-1.74-6.58-7.64-.35-3.76,15.46,3.7,14.49,4.53-.59,6.25-10.29,4.65-15.95,6.89,11.69.65,25-11.37,31.18,0,0,3.22-11.7-4.13-16.91C121.15,44.09,113.09,44.51,105.94,47.8Z" transform="translate(0 -0.05)"/><path class="cls-1" d="M100,101.76c-13.14-8.07-23.89-38-5-54.25,1.65,1.44,3.17,2.86,4.55,4.24C93.36,56.68,89.2,64,90.46,72.21a7.08,7.08,0,0,1,3.39.14c-1.84.54-3.29,3.23-3.76,4.2v.52a8,8,0,0,1,3.82-.49c-1.83,1-3,3.7-3.51,5.45.08.6.17,1.2.29,1.8,1-.37,3.33-1.19,4.82-.85-1.89,1-3,3.89-3.57,5.63.37,1.07.8,2.13,1.28,3.18,1.27-1.2,4.13-2.28,5.64-1.53C97.09,95.36,100,101.76,100,101.76Z" transform="translate(0 -0.05)"/><path class="cls-1" d="M32.91,60.86C11.17,59.66,14.06,39.34,24,37.46c-5.2-.66-13,7.68-9.06,17.39S37,65.39,49.6,59.92" transform="translate(0 -0.05)"/><path class="cls-1" d="M111.14,21.65S94-1.11,65.75,4.55c7,.37,27.43,3.57,32.35,9.72s-13.78-3.69-29,2.7c8.86-1.23,31,2.83,35.3,7.26,6.43,6.61-10-1.72-22.75,2.83,3.07.49,25,2.46,32.6,9.72C111.63,31.12,109.79,24.72,111.14,21.65Z" transform="translate(0 -0.05)"/><path class="cls-1" d="M125.53,36s2.71-9.84,10.33-6.52c-8.61-9.22-8.48-17.46-4.42-24.35C126.52,7.63,122.7,23.12,125.53,36Z" transform="translate(0 -0.05)"/><path class="cls-1" d="M124.3,36s-4.67-11,1.6-27.88c-4.55,5.41-6.89,16.6-5.78,21.77C121.1,33,124.3,36,124.3,36Z" transform="translate(0 -0.05)"/><path class="cls-1" d="M0,5C11.25,29.83,39.79,31.12,59.23,26c5.66.5,28.66,13.85,31.77,16.25,20.92,16.33,25.27,29.71,24.54,41C128.61,50.74,68.45,24.91,62,16.05c0,0-11.07-8.3-2.77-16-6.09,1.84-8.49,10.89-5.35,14.21-5.54.92-24.17-1.67-20.11-12.73-4.58,3.31-4.29,14,6.5,17.89C14.73,19.36,0,5,0,5ZM18.74,21.57c16.37,5.67,36.6,1,41.6-1.27,0,0,6.36,3.92,16.45,11.24a177.58,177.58,0,0,0-17-8.11C46.06,27.54,30.64,26.64,18.74,21.57Z" transform="translate(0 -0.05)"/><path class="cls-1" d="M37.71,74c-6.92.09-12.83-3.21-15.37-11.18,9.76,14.77,24.9,2.62,37.07-3.1C69.43,55.33,79.64,52.37,89,52a9.7,9.7,0,0,0-.68,1,26.22,26.22,0,0,0-3.53,7.3c-.9,0-1.81.07-2.75.16C81.58,66,80,89.91,57.76,91.38c5.36-1.15,17-8.93,16.73-16.93-.08-2.2-3.24-8-14-2.25C44.28,80.73,34,75.74,34,75.74c4.15,0,9.69,2.13,24-5.53,8.37-4.49,12.3-4.93,14.44-3.79l-.14-.18C66.49,59.62,51.55,74.05,37.71,74Z" transform="translate(0 -0.05)"/></svg>