<svg id="Layer_1" data-name="Layer 1" xmlns="http://www.w3.org/2000/svg" viewBox="0 0 392.8 74.77"><defs><style>.cls-1{fill:#fff;}</style></defs><path class="cls-1" d="M18.85,29.84V83H5.62V29.84ZM14.14,83V71.64h10a22.66,22.66,0,0,0,5.89-.76,13.15,13.15,0,0,0,5-2.51,12.09,12.09,0,0,0,3.46-4.67,18,18,0,0,0,1.29-7.26,18,18,0,0,0-1.29-7.26,12.16,12.16,0,0,0-3.46-4.67,13.29,13.29,0,0,0-5-2.51,23.09,23.09,0,0,0-5.89-.76h-10V29.84H24.62a32.81,32.81,0,0,1,15.13,3.27,23.75,23.75,0,0,1,9.88,9.2,27.32,27.32,0,0,1,3.49,14.13,27.41,27.41,0,0,1-3.49,14.1,23.63,23.63,0,0,1-9.88,9.23A32.81,32.81,0,0,1,24.62,83Z" transform="translate(-5.62 -14.69)"/><path class="cls-1" d="M60.46,45.19a26.41,26.41,0,0,1,6-8.81,26.87,26.87,0,0,1,9.12-5.74,33,33,0,0,1,22.68,0,27,27,0,0,1,9.09,5.74,26,26,0,0,1,6,8.81,28.91,28.91,0,0,1,2.13,11.25,30,30,0,0,1-2.09,11.33,26.31,26.31,0,0,1-5.93,9,26.72,26.72,0,0,1-9.08,5.89,32.77,32.77,0,0,1-23,0,26.82,26.82,0,0,1-9.08-5.89,26.31,26.31,0,0,1-5.93-9,30,30,0,0,1-2.09-11.33A28.39,28.39,0,0,1,60.46,45.19Zm13.3,19.57A14,14,0,0,0,79,70.43a16.27,16.27,0,0,0,15.81,0,14,14,0,0,0,5.24-5.67,17.9,17.9,0,0,0,1.87-8.32,18.17,18.17,0,0,0-1.83-8.32,13.74,13.74,0,0,0-5.17-5.66,16.48,16.48,0,0,0-15.92,0,14,14,0,0,0-5.24,5.66,17.8,17.8,0,0,0-1.86,8.32A17.77,17.77,0,0,0,73.76,64.76Z" transform="translate(-5.62 -14.69)"/><path class="cls-1" d="M162.8,46.51c.27.55.54,1,.81,1.48s.58.9.92,1.38a.73.73,0,0,1-.2.51,2.75,2.75,0,0,1-.46,1.58,7.26,7.26,0,0,1-1.07,1.22,8.85,8.85,0,0,1-1.33,1,5.75,5.75,0,0,0-1.22,1.07,10.11,10.11,0,0,0-2.86,1.94,10.49,10.49,0,0,1-2.75,1.94,2.28,2.28,0,0,1-.46.36,2.64,2.64,0,0,0-.56.46.25.25,0,0,0,.3.15c.14,0,.21-.09.21-.15a11.91,11.91,0,0,1-1.48,1.42,5.64,5.64,0,0,0-1.38,1.64q-.3-.21-.15-.21c.1,0,.12,0,0-.1A8,8,0,0,0,149.54,64a4.49,4.49,0,0,1-1.84,1.53c0,.14,0,.23.1.26s0,.05-.1.05a.49.49,0,0,0-.46.31.83.83,0,0,1-.35.4l.1.21a4.08,4.08,0,0,1-.92,1.17A8.16,8.16,0,0,0,145,69.16l-.62.2c0,.2.06.29.16.26s.08,0-.05.15-.22.07-.26,0-.15,0-.35.1c-.07-.07-.11-.05-.11,0s0,.15-.1.15.1.19.1.16,0,0,.11.15a3.64,3.64,0,0,1-1.43,1.43,3.67,3.67,0,0,1-1,1.94,3.45,3.45,0,0,0-1,1.73h-.31a1.65,1.65,0,0,1-.41,1c-.06-.07-.27-.1-.61-.1,0-.21.1-.26.31-.15s.37,0,.51-.26c-.14-.14-.24-.17-.31-.1a1,1,0,0,1-.3.2A20.6,20.6,0,0,1,140.36,74a12.73,12.73,0,0,0,1-2.14.41.41,0,0,0-.31-.1,3.6,3.6,0,0,0-.61,1.07,2.31,2.31,0,0,1-.71,1,1.38,1.38,0,0,1-.06.46,1.23,1.23,0,0,0-.05.35,16.79,16.79,0,0,0-2,4.59,17.34,17.34,0,0,0-.61,5.31c0,.13,0,.16.15.1a.5.5,0,0,1,.26-.1.42.42,0,0,1-.05.25.18.18,0,0,0,0,.15c-.07-.06-.17-.06-.31,0,.07,0,.07,0,0,.11s0,.06.1,0a1.65,1.65,0,0,0,0,.3.29.29,0,0,1,0,.31,2.41,2.41,0,0,0,1.38,2.19,4.66,4.66,0,0,0,2.7.15,12.16,12.16,0,0,0,3-1c1-.47,1.79-.88,2.4-1.22a4.08,4.08,0,0,1-.71.56,1.63,1.63,0,0,0-.62.66c-1,.55-2.09,1.08-3.21,1.58a11.52,11.52,0,0,1-3.83,1,2.26,2.26,0,0,1-1.58-.61,4.87,4.87,0,0,1-1.07-1.43,18.65,18.65,0,0,1,.05-7.39,25.58,25.58,0,0,1,2.3-6.22,65,65,0,0,1,3.31-5.61,55.28,55.28,0,0,0,3.22-5.56c-1.16.75-2.32,1.48-3.47,2.19s-2.31,1.41-3.47,2.09a.33.33,0,0,0,.31.21.4.4,0,0,1,.3.1,3.14,3.14,0,0,1-.56.2,1,1,0,0,0-.56.41c-1.16.61-2.31,1.21-3.47,1.79a13.43,13.43,0,0,0-3.16,2.19c-.61.34-1.24.66-1.89,1l-2.09,1c-.95.75-1.92,1.49-2.9,2.24a13.3,13.3,0,0,1-3.42,1.84q.1.19,0,.3c-.07.07-.07.17,0,.31a.83.83,0,0,1-.51-.15,2.33,2.33,0,0,0-.41-.26c-.07,0-.1,0-.1,0s0,0-.1,0h-.11a6.78,6.78,0,0,1-.76-.66,6.78,6.78,0,0,0-.76-.66,10.89,10.89,0,0,1-.87-1,4.74,4.74,0,0,1-.72-1.18,2.24,2.24,0,0,1-.15-1.22,1.88,1.88,0,0,1,.72-1.12V72a52,52,0,0,1,7.19-7,86.79,86.79,0,0,1,8.31-5.91c.2-.07.24-.05.1,0s-.2.19-.2.25a1.54,1.54,0,0,0,1-.35,4.24,4.24,0,0,0,.76-.77c.07-.06.07-.08,0-.05a.15.15,0,0,1-.2,0,73.81,73.81,0,0,1,12.7-6.63A87.91,87.91,0,0,1,161,47c.14-.06.27,0,.41.31a2.64,2.64,0,0,0,.66-.46c.17-.17.32-.19.46,0ZM129.65,68.75q4.38-2.44,8.56-5a90.94,90.94,0,0,0,8.06-5.51q-4.28,2.35-8.41,4.95T129.65,68.75Z" transform="translate(-5.62 -14.69)"/><path class="cls-1" d="M207.37,49.57a.62.62,0,0,0,0,.92v.41l-.2.2a.35.35,0,0,0-.31.15.34.34,0,0,1-.31.16l-.1.3a13.27,13.27,0,0,1-1.43.92c-.47.27-.91.55-1.32.82s-1.07.54-1.58.81-1,.51-1.48.72a.09.09,0,0,1-.1.1c-.07,0-.14.07-.21.2a2.85,2.85,0,0,0-1.22.72,2.09,2.09,0,0,1-1.12.61c0-.07.1-.14.3-.2s.27-.14.21-.21a3.45,3.45,0,0,1-.67.15,1,1,0,0,0-.56.26v-.1l-.4.41c0,.06-.11.06-.31,0a.88.88,0,0,1-.92.61c.27.2.41.2.41,0,0,.14-.27.3-.82.51-.07,0-.17.07-.3.2a2.52,2.52,0,0,1-1.43.82,6.39,6.39,0,0,1,.71-.41,2.55,2.55,0,0,0,.62-.41c-.48.21-.91.41-1.28.61a5,5,0,0,0-1.07.82.91.91,0,0,0-.36.36.53.53,0,0,1-.15.25,2.94,2.94,0,0,0-.61,0,1.17,1.17,0,0,0-.51.46l-.62.72a3,3,0,0,0-1,.1l-.81.3v-.2a2.5,2.5,0,0,0-1.28.71,6.9,6.9,0,0,1-1.37,1.13l-1,.3a1.79,1.79,0,0,0-.77.31,4.62,4.62,0,0,0-.46.41,2.83,2.83,0,0,1-.51.4l-.61.41c-.14-.07-.29,0-.46.16s-.25.22-.25.15a1.84,1.84,0,0,0-.21.25.86.86,0,0,1-.3.26,1.51,1.51,0,0,0-1,.56,6.72,6.72,0,0,1-.62.87c-.27.13-.54.25-.81.35a1.59,1.59,0,0,0-.61.36,4.88,4.88,0,0,0-1.28,1.38A3.76,3.76,0,0,1,175.55,71c-.14-.13-.14-.24,0-.3a.34.34,0,0,0,.2-.31,26.15,26.15,0,0,1,2.7-3.06c1-.95,1.92-1.94,2.81-3a.4.4,0,0,1,.3-.1.38.38,0,0,1,.06-.26.21.21,0,0,0,0-.15,2.5,2.5,0,0,0,.61-.3,1.19,1.19,0,0,0,.2-.31l-.1.1c0-.41.17-.61.51-.61.14,0,.17,0,.1,0s-.1-.12-.1-.26h.1l.21.21a26.06,26.06,0,0,0,2-1.84,14.9,14.9,0,0,1,2-1.73h-.21a4.62,4.62,0,0,0,.46-.26,2.66,2.66,0,0,0,.46-.35c.14-.14.24-.21.31-.21s.1-.06.1-.2c.47-.34.95-.72,1.43-1.12s.92-.82,1.32-1.23,1-.8,1.48-1.17l1.48-1.07q-4.29,1.72-8,3.62t-7.29,4a7,7,0,0,1-1.07.51,2.23,2.23,0,0,0-1,.71h-.1c-.55.34-1.07.65-1.58.92s-1,.55-1.58.82-.79.63-1.13.86-.71.53-1.12.87a4.73,4.73,0,0,1-.61.51,4.73,4.73,0,0,0-.61.51c0,.14-.27.2-.82.2.07.07.05.11-.05.11a.28.28,0,0,0-.25.2A115.06,115.06,0,0,0,158.1,76a52.47,52.47,0,0,0-8.87,10.3,1.21,1.21,0,0,0-.71.21c0-.14-.1-.19-.31-.16a.53.53,0,0,1-.51-.15v-.1a.68.68,0,0,0-.51-.21.69.69,0,0,1-.51-.2,5.5,5.5,0,0,0-.71-.31c-.21-.06-.31-.17-.31-.3a.38.38,0,0,1-.51,0,1.43,1.43,0,0,0-.41-.31v-.51c-.27,0-.39-.15-.35-.46a1.23,1.23,0,0,1,.35-.76.21.21,0,0,0-.25,0c-.1,0-.16,0-.16,0a.57.57,0,0,1,.11-.72l.51-.51a6.15,6.15,0,0,1,1.22-1.83,9,9,0,0,0,1.33-1.74c.34-.34.62-.64.86-.92a6.49,6.49,0,0,0,.67-.91l.71-.87a3.07,3.07,0,0,0,.51-.87,1.3,1.3,0,0,0,.46-.51,4.08,4.08,0,0,1,.56-.71L159,62.83a3.72,3.72,0,0,0,.46-.56,1.7,1.7,0,0,1,.77-.56,10.36,10.36,0,0,1,2-2.75,5.32,5.32,0,0,0,1.07-1.23,13.06,13.06,0,0,1,1.17-1.53A6.58,6.58,0,0,0,165.65,55a5.32,5.32,0,0,1,1.23-1.23A9.44,9.44,0,0,0,169,51.2a1.17,1.17,0,0,0,.41-.4,2.83,2.83,0,0,1,.4-.51.59.59,0,0,0,.26-.21,1.51,1.51,0,0,1,.25-.3l.46-.21a1.47,1.47,0,0,1,.46-.1,12.58,12.58,0,0,1,1,.82c.37.34.75.71,1.12,1.12l1.07,1.17a7,7,0,0,0,.92.87L177,56h.21c.07,0,.17.07.3.2s0,.21.11.21a.09.09,0,0,0,.1.1c.81-.34,1.56-.68,2.24-1a22.53,22.53,0,0,1,2.45-1q3.27-1.42,6.27-2.91a47.72,47.72,0,0,1,6.58-2.6A11.25,11.25,0,0,0,197,48.4a12.25,12.25,0,0,1,1.68-.56c.75-.14,1.44-.26,2.09-.36a5.81,5.81,0,0,1,2,.05c0,.07,0,.1.1.1l.1-.1c.07.14.11.17.11.1a.09.09,0,0,1,.1-.1c.27,0,.41.1.41.31l-.31.3c.48,0,.71,0,.71-.1a.63.63,0,0,1,.72.51.53.53,0,0,1,.76.05c.24.24.43.36.56.36.41-.14.53-.32.36-.56s-.15-.19,0,.15h-.2c0,.21,0,.27.05.21s0,0,0,.2v.1a.54.54,0,0,0-.25.1.66.66,0,0,1-.36.11.6.6,0,0,0,.66,0,.3.3,0,0,1,.46,0,.34.34,0,0,1,.2-.31q-.19.3.06.36c.17,0,.18.12,0,.25ZM182,58.45a1.91,1.91,0,0,0,1-.92,2.58,2.58,0,0,1-1.73.92l.1.1a3.38,3.38,0,0,0-1.22.71,2.58,2.58,0,0,1-1.23.61c0,.14-.13.26-.41.36s-.4.26-.4.46A9,9,0,0,0,180,59.57a7.38,7.38,0,0,1,1.69-1C181.67,58.48,181.77,58.45,182,58.45Zm-.3,5.4v-.2l.1-.1A.93.93,0,0,1,181.67,63.85Zm.71,1.53-.1.21h-.1Zm11-6.22-.21.1-.1.1.1-.1A.34.34,0,0,1,193.4,59.16Zm.1-.1a.09.09,0,0,1-.1.1Zm7.24-10.92a1.42,1.42,0,0,1,1,0,1.31,1.31,0,0,0,1-.05,6.76,6.76,0,0,0-4,.21h-.1c.41-.07.78-.12,1.12-.16a3.88,3.88,0,0,1,1,0,4.38,4.38,0,0,1-.76.11h-.46a5.88,5.88,0,0,1,.81.1,2.13,2.13,0,0,0,1.13-.1c0-.21-.11-.26-.31-.16S200.81,48.21,200.74,48.14Zm6.63,2.35v0Z" transform="translate(-5.62 -14.69)"/><path class="cls-1" d="M173.81,37.13a1.91,1.91,0,0,0,1.28.87c.44,0,.93,0,1.48,0,2-.21,4.14-.46,6.32-.77s4.25-.63,6.22-1q7.75-1.12,15.71-2.24t15.81-1.53c-1.63.2-3.33.41-5.1.61a38.7,38.7,0,0,0-5.1.92c.07.14.19.15.36,0a.86.86,0,0,1,.76.05,10.86,10.86,0,0,1-1.37.1,2.81,2.81,0,0,0-1.08.21,3.3,3.3,0,0,0,1.59.2l1.58-.2c2.38-.27,4.82-.58,7.34-.92s5-.58,7.34-.72c0,.14.11.19.31.16s.27,0,.2.15a2,2,0,0,0,1.69-.71,6,6,0,0,1,1.48-1.33c.61-.54,1.27-1.1,2-1.68s1.44-1.14,2.19-1.69c1.22-1.15,2.45-2.26,3.67-3.31s2.52-2.09,3.88-3.11c.74-.61,1.41-1.19,2-1.74s1.23-1.15,2-1.83,1.16-1.06,1.64-1.53,1-1,1.53-1.53a10.92,10.92,0,0,0,2.14,0,1.25,1.25,0,0,1,1.17.61,1.84,1.84,0,0,0,.87.82c.68,1.42,1.41,2.79,2.19,4.08a6.3,6.3,0,0,1,.66,4.59,9,9,0,0,1-3.31,2.39,14,14,0,0,0-3.62,2.3.52.52,0,0,0,.51.15,2,2,0,0,1,.71.05q4.91.21,9.79.1c3.27-.06,6.63,0,10.1.21,1.7.2,3.52.41,5.46.61s3.87.46,5.81.77a53.48,53.48,0,0,1,5.61,1.17,26,26,0,0,1,5,1.83,5.94,5.94,0,0,1,.82,3.27c-.07.2-.17.27-.31.2a.35.35,0,0,0-.41.1c-.14.14-.12.17.05.11s.26,0,.26.1a2.3,2.3,0,0,0-.72.61c.27.14.34.24.21.31s0,.13.3.2a13.38,13.38,0,0,1-1.63.56c-.61.17-1.22.36-1.83.56a1.42,1.42,0,0,0-.46.1,1.08,1.08,0,0,1-.77-.1q1,.51,1.53.21a2.49,2.49,0,0,1,1.33-.31q0-.1.15-.15a.56.56,0,0,0,.26-.36.55.55,0,0,0,.66.15,1.16,1.16,0,0,1,.87,0q.09.62-.51.51c-.41-.06-.55,0-.41.31l-1.53.2c-.41.07-.89.17-1.43.31.07.14.15.15.26,0s.18-.12.25,0c-.27.34-.53.46-.76.36s-.57-.22-1-.36a1.83,1.83,0,0,1,.4,0,1.44,1.44,0,0,0,.41,0,2.14,2.14,0,0,0-1.63.05,5.87,5.87,0,0,1-1.63.46c-.27.14-.48.16-.61,0a3.77,3.77,0,0,0-.41-.25,2.43,2.43,0,0,1-.82.05,5.61,5.61,0,0,0-.81-.05,6,6,0,0,0-1.74.05c-.61.1-1.19.19-1.73.25a.92.92,0,0,1-.72-.1.94.94,0,0,0-.71-.1,9,9,0,0,0-2.55.36,21.61,21.61,0,0,1-2.45.56,1.73,1.73,0,0,0-1.32-.31,4.87,4.87,0,0,1-1.43,0c0,.07.1.1.3.1-.95.14-1.83.26-2.65.36a19.23,19.23,0,0,1-2.34.15c-.07-.06-.06-.08.05,0a.21.21,0,0,0,.25-.05,18,18,0,0,1-2.5.26,8.24,8.24,0,0,0-2.7.56l-.1-.1v-.11a8.87,8.87,0,0,0-2.91.31,22.19,22.19,0,0,1-2.91.61,1.07,1.07,0,0,1-.3,0l.2,0a166.6,166.6,0,0,1,16.42-4.33q8.47-1.78,16.63-4.24-.1-.3-.87-.45a6.56,6.56,0,0,0-1.37-.16,13.1,13.1,0,0,1-2.15-.51,5.58,5.58,0,0,0-1.73-.3.34.34,0,0,1-.31-.16,1.29,1.29,0,0,0-.2-.25,1.59,1.59,0,0,1-.51.61,5.82,5.82,0,0,0-.76-.2,3.56,3.56,0,0,0-.67-.11c.14-.13.41-.15.82,0a1.66,1.66,0,0,0,.92,0,18.29,18.29,0,0,0-2.2-.45,3.62,3.62,0,0,0-1.88.15,4.51,4.51,0,0,0-2.3-.21,12,12,0,0,1-2.09.21,1.06,1.06,0,0,1-.66.25,1.45,1.45,0,0,1-.87-.15,1.32,1.32,0,0,0,.66,0,5.13,5.13,0,0,1,.56,0,5.88,5.88,0,0,0-2.29-.15,4.34,4.34,0,0,1-2.19-.26.39.39,0,0,0,.3.1.69.69,0,0,1-.86.36,3.73,3.73,0,0,0-.87-.15l-1.12.2a6.93,6.93,0,0,1-1.33.1,2.22,2.22,0,0,1-1.07,0,6.74,6.74,0,0,0-1.48-.15v.2a6.24,6.24,0,0,1-.71,0,2.76,2.76,0,0,0-1.13.16l-.2-.11a6.93,6.93,0,0,0-1.94.31,5.64,5.64,0,0,1-2.14.2.7.7,0,0,1-.61-.1,1.13,1.13,0,0,0-.92,0,17,17,0,0,0-1.63.51,2.58,2.58,0,0,1-1.33.21.5.5,0,0,0,.67.25.64.64,0,0,1,.66,0c-.61.14-1.29.27-2,.41a6.87,6.87,0,0,1-2,.1,6.58,6.58,0,0,1-2.19.46l-2.4.1c-.82,0-1.6.09-2.35.16a6.24,6.24,0,0,0-2,.51c-.2.2-.17.3.1.3a2.92,2.92,0,0,0-1.68.46c-.44.31-.93.66-1.48,1.07a4.48,4.48,0,0,0-.81.61l-.51.51a2.28,2.28,0,0,1-.46.36,3,3,0,0,0-.56.46c-.68.48-1.42.95-2.2,1.43a10.34,10.34,0,0,0-2,1.53,3.45,3.45,0,0,1-.56.46l-.56.35c-.2.21-.41.43-.61.67s-.48.52-.82.86q-.81.72-1.68,1.38a11.74,11.74,0,0,0-1.68,1.58.29.29,0,0,0-.26.1c0,.07-.12.07-.25,0a5.38,5.38,0,0,1-1.84,2A5.23,5.23,0,0,0,219,53.45a9.48,9.48,0,0,0-1.23,1c-.4.37-.85.76-1.32,1.17a2.7,2.7,0,0,0-.56.51,3,3,0,0,1-.56.51c-.07.2-.28.31-.62.31a2.3,2.3,0,0,1-.4.91,12.28,12.28,0,0,0-1,.92l-1,1a14.09,14.09,0,0,0-1.79,1.94,7.22,7.22,0,0,1-2.09,1.84c-.07.2-.15.3-.25.3s-.19.14-.26.41a1.21,1.21,0,0,0-1.12.31,2.61,2.61,0,0,0-.61.91,4.76,4.76,0,0,0-.57.36c-.23.17-.29.29-.15.36-.07.13-.14.19-.2.15a.18.18,0,0,0-.21.05,6,6,0,0,1-.76,1.58,6.93,6.93,0,0,1-1,1.18,10.27,10.27,0,0,0-1,1.07,3.36,3.36,0,0,0-.66,1.27,1.78,1.78,0,0,0-.87.87,1.32,1.32,0,0,1-.87.76q2.55-1.22,5-2.55t5-2.75c1.56-1,3.18-1.85,4.84-2.7s3.35-1.75,5.05-2.71q5.82-3.26,11.83-6.12t12.24-5.5c-1.36.74-2.72,1.53-4.08,2.34a38.07,38.07,0,0,1-4.08,2.14,2.22,2.22,0,0,1-.35.31,1.55,1.55,0,0,0-.36.41c-.14-.14-.31-.12-.51,0a1.33,1.33,0,0,0-.41.56,7.32,7.32,0,0,0-2.65,1.63,7.36,7.36,0,0,1-2.55,1.63,1.21,1.21,0,0,0-.25.31.74.74,0,0,1-.16.2,20.11,20.11,0,0,1-2,1.08,3.08,3.08,0,0,0-1.53,1.47,2.94,2.94,0,0,0-1.17.41,2.79,2.79,0,0,1-1.17.41,1.52,1.52,0,0,0-.26.41.88.88,0,0,1-.66.41c-.07.13-.09.24-.05.3s0,.17-.16.31a15.54,15.54,0,0,1-2.9,1.83A11.89,11.89,0,0,0,215.63,69a3.81,3.81,0,0,0-.66.31,1.38,1.38,0,0,0-.56.81c-.41.35-.87.72-1.38,1.13a7.32,7.32,0,0,1-1.78,1,.47.47,0,0,1-.36.35,1.25,1.25,0,0,0-.56.36,1.59,1.59,0,0,0-.72.51.62.62,0,0,1-.71.2,10.11,10.11,0,0,1-2.6,2.2,9.25,9.25,0,0,0-2.6,2.29c-.07.27,0,.46.05.56a1.16,1.16,0,0,1,.25.36q-1,.72-2,1.38c-.68.44-1.32.9-1.93,1.37h-.26s0,.07-.05.21a.8.8,0,0,0-.76.51c-.17.34-.5.44-1,.3a.82.82,0,0,0-.11.31c0,.07-.06.17-.2.31a1,1,0,0,0-.92.3c-.27.27-.37.48-.3.61a2.93,2.93,0,0,0-1.18.41,1.26,1.26,0,0,1-1,.21.27.27,0,0,0,.31.3.92.92,0,0,0-1,.31.09.09,0,0,0,.1-.1c0-.14,0-.21.1-.21a.76.76,0,0,1-.51,0,5.61,5.61,0,0,0-.81,0,.18.18,0,0,1,.2-.2c.14,0,.14-.14,0-.41-.2-.07-.39,0-.56.31s-.32.34-.46.2.07-.2.21-.2h.1c.07-.21,0-.31-.15-.31s-.23.14-.16.41a.79.79,0,0,1-.46-.56.56.56,0,0,0-.25-.46,3.62,3.62,0,0,1-.51,0c-.21,0-.34,0-.41,0a2.12,2.12,0,0,0-.76-.77l-.62-.25a.61.61,0,0,1-.35-.41,2.26,2.26,0,0,1,.1-1.12,2.55,2.55,0,0,1-.61-1.89,4.87,4.87,0,0,1,.66-1.94,11.51,11.51,0,0,1,1.33-1.83c.51-.58.93-1.11,1.27-1.58a214.88,214.88,0,0,1,15.5-19.33q8.16-9,17-17.39a.33.33,0,0,0-.36,0c-.1.06-.22,0-.36-.11a.67.67,0,0,1,.57-.15A.54.54,0,0,0,224,37c-.55.06-1.13.12-1.74.15s-1.29.09-2,.15a2,2,0,0,1,.87-.2H222a6.73,6.73,0,0,0-2.91.2,16.13,16.13,0,0,1-2.7.61.59.59,0,0,1,.4-.2,1,1,0,0,0,.51-.2,33,33,0,0,1-3.36.25,18.15,18.15,0,0,0-3.27.36c.14-.34.11-.44-.1-.31s-.37.07-.51-.2c-.13,0-.17.08-.1.25s0,.22-.1.16a1,1,0,0,0-1.07.2.88.88,0,0,1-1,.2c0,.07-.05.14-.16.21a.34.34,0,0,0-.15.3,1.38,1.38,0,0,0-.92.21q-.2.21-1,0a3.51,3.51,0,0,1,.72-.15,1,1,0,0,0,.61-.26c-.2-.27-.39-.32-.56-.15a1.42,1.42,0,0,1-.77.35h.21a.28.28,0,0,0,.2-.1c.07.14,0,.21-.2.21h-.41c.14.06,0,.15-.31.25a3.6,3.6,0,0,1-1,.15,1.89,1.89,0,0,1,1.13-.3,8,8,0,0,0-1.48-.1,3,3,0,0,0-1.48.3c-.07,0-.1,0-.1-.15s-.07-.12-.21,0a2.66,2.66,0,0,0-.61.1,2.66,2.66,0,0,1-.61.1,2.83,2.83,0,0,1,.56-.3,1.75,1.75,0,0,1,.87,0,2.21,2.21,0,0,0-1.07,0,1.42,1.42,0,0,1-1,0c0-.14,0-.19.05-.16s0,0,0,0h-.82a.82.82,0,0,0-.61.21c.07.06.1.06.1,0a.1.1,0,0,1,.1-.11c-.74.35-1.44.68-2.09,1a4.72,4.72,0,0,1-2.29.51.87.87,0,0,1,.46-.25.86.86,0,0,0,.46-.26,1.66,1.66,0,0,0-.92.06l-.92.35c0-.06.07-.08.2,0s.17,0,.11-.15c-.21-.07-.33,0-.36.1s-.22.14-.56,0h.3a.55.55,0,0,0-.4-.2c-.14,0-.21.06-.21.2a2.48,2.48,0,0,0-1,0c-.41.07-.64.17-.71.31-1.36.2-2.57.4-3.62.61a26.85,26.85,0,0,1-3.52.41.24.24,0,0,0-.26.2c0,.14-.18.14-.46,0h.21a.18.18,0,0,0,.2-.2c-.13.13-.46.18-1,.15a4,4,0,0,1-1.27-.26c-.07,0-.1.07-.1.21s0,.1-.11.1h-.71a1,1,0,0,0-.51.2,5.93,5.93,0,0,0-1.79-.35c-.64,0-1.3-.05-2-.05a3.52,3.52,0,0,1-2.35-.56c-.61-.45-1.22-.94-1.84-1.48-.13-.41-.35-1-.66-1.69a1.94,1.94,0,0,1,0-1.88A4.58,4.58,0,0,1,173,34.88a13.62,13.62,0,0,1,2-.71,44,44,0,0,1,6.18-2.45q3.51-1.12,6.27-1.83c1-.14,1.85-.27,2.7-.41l2.5-.41c-.2.34-.75.51-1.63.51s-1.48.31-2.2.51a7.73,7.73,0,0,1-2.09.31,4.45,4.45,0,0,1-1.63.71,2.56,2.56,0,0,0-1.43.82.85.85,0,0,0-.51.15.27.27,0,0,1-.4,0c-.14.14-.19.25-.16.36s0,.18-.15.25a28.4,28.4,0,0,0-7.24,3.26.28.28,0,0,0,.41.06,2.27,2.27,0,0,1,.4-.26c0,.27-.2.49-.61.66a3,3,0,0,0-.92.56c.41-.2.5-.22.26-.05A1.47,1.47,0,0,1,173.81,37.13Zm33.87-.21a3.11,3.11,0,0,1-1.38.11c-.51-.07-.8,0-.87.1a4.75,4.75,0,0,1-1.07.25,2.73,2.73,0,0,0-.87.26.89.89,0,0,0-.61,0,.77.77,0,0,0-.51.3c1.57-.27,3.16-.52,4.8-.76s3.19-.53,4.69-.87c-.82.14-1.53.24-2.14.31S208.42,36.79,207.68,36.92Zm3.87.51c.07.28.26.35.56.21a8.23,8.23,0,0,1,.77-.31,4.12,4.12,0,0,0,1.43-.41,2.44,2.44,0,0,1,1.42-.2,6.51,6.51,0,0,0-2.39.2C212.69,37.13,212.1,37.3,211.55,37.43Zm15.1-2.75a.57.57,0,0,1-.66,0,1,1,0,0,0-.87,0,10,10,0,0,0-2.81.26,7.57,7.57,0,0,1-2.8.15.33.33,0,0,1-.41.25.54.54,0,0,0-.41,0v.31a8,8,0,0,0-1.78-.2,2.24,2.24,0,0,0-1.48.51.17.17,0,0,0-.15.05s-.12,0-.26-.05a.39.39,0,0,0,.1.3l.21.21c1.29-.34,2.55-.62,3.77-.82a16.75,16.75,0,0,1,4.18-.1.61.61,0,0,1,.72-.31,4,4,0,0,0,.71.1,4.93,4.93,0,0,1-1.22.26,2.82,2.82,0,0,0-1,.25c.27-.06.23-.08-.11,0a9.71,9.71,0,0,1-1.12,0,1.45,1.45,0,0,0-1.53.62c.95-.14,1.82-.24,2.6-.31a9.21,9.21,0,0,0,2.3-.51v.1c0,.07,0,.1.1.1a1.32,1.32,0,0,0,1.12-.51l-.51.16a.69.69,0,0,1-.51-.16,1.89,1.89,0,0,0,1.12-.15C226.34,35.07,226.58,34.88,226.65,34.68Zm43.86-1.12a.12.12,0,0,1,.2,0c.07.07.1.07.1,0a5.22,5.22,0,0,1-2.14-.26,2.85,2.85,0,0,0-2,.05,6.24,6.24,0,0,0,2,.31c.75,0,1.6,0,2.55-.1a.25.25,0,0,0-.41,0Q270.62,33.77,270.51,33.56Z" transform="translate(-5.62 -14.69)"/><path class="cls-1" d="M229.91,73.85a1.61,1.61,0,0,0-.2.61,1.83,1.83,0,0,0-.82.66,1.71,1.71,0,0,1-.81.67.55.55,0,0,0-.11.4,1.27,1.27,0,0,0-.46.11.57.57,0,0,0-.35.4c-.07,0-.1,0-.1,0s0,.06-.11.06V77a1.61,1.61,0,0,0-.66.66,1.47,1.47,0,0,1-.76.67.67.67,0,0,1-.36.76,1.11,1.11,0,0,0-.56.87,4.54,4.54,0,0,1-.51.2.91.91,0,0,1-.61,0,.82.82,0,0,1-.26.82,1.13,1.13,0,0,0-.36.92,5.34,5.34,0,0,0,1.84-.87,6.92,6.92,0,0,1,1.73-1,47.74,47.74,0,0,0,4.75-3.16c1.53-1.16,3.07-2.31,4.64-3.47q6.12-4.59,11.93-9.18a1.09,1.09,0,0,1-.15.56c-.1.17-.19.32-.26.46-.34.34-.73.71-1.17,1.12a5.59,5.59,0,0,1-1.27.92c-.28.14-.41.27-.41.41a4,4,0,0,1-1.38,1.32,5.22,5.22,0,0,0-1.48,1.33.3.3,0,0,0-.2.1,1.18,1.18,0,0,1-.31.21l-.3.3-.82.82a8.78,8.78,0,0,0-1.22,1,8.34,8.34,0,0,1-1.53,1.07,2,2,0,0,1-.82,1.12l-.41.31-.3.2a7.45,7.45,0,0,0-.82,1,2,2,0,0,1-1.22.76,1.18,1.18,0,0,1-.21.31,1.16,1.16,0,0,0-.2.51.25.25,0,0,0-.16,0,.17.17,0,0,1-.15,0c-.34.34-.64.63-.92.87s-.57.53-.91.87a1.66,1.66,0,0,1-.72.81,3.72,3.72,0,0,0-.92.82L229,82a2.31,2.31,0,0,1-.76.46,2.13,2.13,0,0,1-.87.81,2.6,2.6,0,0,0-.86.72,3.38,3.38,0,0,0-1.23.61,2.62,2.62,0,0,1-1.32.51,1.3,1.3,0,0,1-.67-.15.85.85,0,0,0-.46-.16c-.13-.14-.25-.17-.35-.1a.61.61,0,0,1-.36.1,2.1,2.1,0,0,1-.46-.1,4.8,4.8,0,0,1-.56-.2l-1.73-1.23a3.15,3.15,0,0,1-.31-1.73,5.91,5.91,0,0,1,.87-2.76l1.48-2.34c.54-.75,1.08-1.51,1.63-2.3s1.09-1.54,1.63-2.29l2.55-3q1.94-2,4-4c1.39-1.32,2.77-2.67,4.13-4a26,26,0,0,1,2.4-2.29,26,26,0,0,0,2.39-2.3l.41-.2a1.58,1.58,0,0,0,.41-.31l1.53-1.12c.27-.47.51-.75.71-.82a.71.71,0,0,1,.62.11,6,6,0,0,1,.66.51,1.16,1.16,0,0,0,.76.3,9.24,9.24,0,0,0,1,1c.44.41.89.85,1.33,1.33a10.15,10.15,0,0,1,1.12,1.43,1.09,1.09,0,0,1,.15,1.22,5.86,5.86,0,0,1-1.47,1.68c-.58.45-1.18.87-1.79,1.28A2.29,2.29,0,0,0,245,63a1.43,1.43,0,0,1-.72.3c-.2.14-.42.27-.66.41a1.73,1.73,0,0,0-.56.51,1.14,1.14,0,0,0-.77.51,1.12,1.12,0,0,1-.76.51,11.5,11.5,0,0,1-1.07.76,2.68,2.68,0,0,0-.87.87,10.19,10.19,0,0,0-2.09,1.28l-1.89,1.48a1.49,1.49,0,0,1-.66.51,1.27,1.27,0,0,0-.66.61,1.08,1.08,0,0,1-.61.2.66.66,0,0,0-.51.21l-.21.3-.51.41c-.13.14-.27.29-.41.46s-.27.32-.4.46a1.64,1.64,0,0,0-1,.71A1.71,1.71,0,0,1,229.91,73.85Zm43.86-35.19a.42.42,0,0,1-.41.15.43.43,0,0,0-.4.15,6,6,0,0,0-2.09,1.28,5.89,5.89,0,0,1-2.4,1.27,1.85,1.85,0,0,1-.56.67c-.24.17-.5.35-.77.56a.29.29,0,0,0,.21.1c.06,0,.1,0,.1,0s-.07,0-.21,0a1.66,1.66,0,0,1-1.22.41c.41.27.48.46.2.56s-.34.32-.2.66a3.34,3.34,0,0,1-.77.51q-.56.31-1,.51a2.57,2.57,0,0,0,.1.82.68.68,0,0,1-.41.31c-.2.06-.14.27.2.61-.54,0-.81.2-.81.61a22.85,22.85,0,0,1-3.06,1.22c-1.23.41-2.38.82-3.47,1.23a3.78,3.78,0,0,0-.71.46,1.73,1.73,0,0,1-.72.35h-.71a7.79,7.79,0,0,0-3,1.07,5.51,5.51,0,0,1-3.26.77,1.21,1.21,0,0,1-.92-.15,2,2,0,0,0-1.23-.16,1.21,1.21,0,0,0-.61-1,12,12,0,0,0-1.27-2.44,7.2,7.2,0,0,1-1.07-2.35,15.48,15.48,0,0,0,3.46-1.43,6.9,6.9,0,0,1,3.78-.81h.71a6.84,6.84,0,0,0,2-.46,9.38,9.38,0,0,1,2-.56q4.59-1.23,9-2.71A58.72,58.72,0,0,1,273.77,38.66Z" transform="translate(-5.62 -14.69)"/><path class="cls-1" d="M264.59,64.16q3.46,0,7.34-.31t7.81-.46q3.92-.15,7.85,0a36.91,36.91,0,0,1,7.7,1.23c.07.07.14,0,.21,0a.34.34,0,0,1,.3-.16,5.86,5.86,0,0,1,3.88,4.08,2.88,2.88,0,0,1-.92.92,1.21,1.21,0,0,0-.61.82,17.72,17.72,0,0,1-1.84.81c-.54.21-1.19.41-1.94.62a1.9,1.9,0,0,1-1.17.66,10.59,10.59,0,0,0-1.38.36c-.2.06-.34,0-.4,0s-.17-.09-.31,0c-.14-.07-.15-.07-.05,0s.12.1.05.1a2.42,2.42,0,0,0-1.22.1,1.85,1.85,0,0,1-1.23,0,5.41,5.41,0,0,1-1.94.82,19.7,19.7,0,0,1-2.14.3h.21a5.35,5.35,0,0,1-1.58.36,2.34,2.34,0,0,0-1.38.56c-.14,0-.19-.08-.16-.25s0-.22-.15-.16a13.51,13.51,0,0,1-2.6.92,25.29,25.29,0,0,0-2.7.82.34.34,0,0,0-.1-.21l-.21-.2c-1.16.27-2.28.51-3.36.71s-2.11.38-3.06.51c-.62.21-1.16.38-1.64.51a5.53,5.53,0,0,0-1.22.51,2.7,2.7,0,0,0-1.17.05,10.32,10.32,0,0,0-1.07.36.46.46,0,0,0-.31.1c-.07.07-.14,0-.2-.1a27,27,0,0,1-6,1.63,31.39,31.39,0,0,0-6.22,1.63,2.27,2.27,0,0,0-1.48.26,2,2,0,0,1-1.38.25c-.61.14-1.11.26-1.48.36l-1.38.36c-1.36.34-2.87.64-4.54.92a30.75,30.75,0,0,1-4.94.4,4.13,4.13,0,0,0-2-.4c0-.14-.1-.21-.31-.21s-.24-.07-.1-.2h-.61c-.27-.14-.38-.27-.31-.41a.43.43,0,0,0,0-.41.62.62,0,0,1,.46-.2c.17,0,.26-.07.26-.21h.71c.14-.06.17-.15.1-.25s-.06-.15,0-.15.15.15.26,0a.44.44,0,0,0,.15-.26l.1.1q4.9-2,10.15-3.87a97.27,97.27,0,0,1,10.56-3.06c2.31-.55,4.69-1.14,7.14-1.79s4.93-1.17,7.44-1.58c1.5-.34,3.08-.64,4.75-.92s3.28-.51,4.84-.71,3.15-.29,4.75-.46a19.43,19.43,0,0,0,4.64-1.07,6.37,6.37,0,0,1-2.25.2,5,5,0,0,0-2,.21,2.12,2.12,0,0,0-1.32,0,1.81,1.81,0,0,1-1.43-.21,11.52,11.52,0,0,0-3,.41,7.52,7.52,0,0,1-3,.21,20.1,20.1,0,0,1-2.65.4c-.82.07-1.5.11-2,.11,0,.06.07.1.2.1a7.57,7.57,0,0,0-3.21.46,7,7,0,0,1-3.31.35,1.82,1.82,0,0,1-.82.21h-.82c-.06,0-.1,0-.1.15s0,.15-.1.15a1.29,1.29,0,0,1-.87.36l-1.17.15a5.8,5.8,0,0,0-1.07.11,6.22,6.22,0,0,1-.87.1h-.51a6.58,6.58,0,0,0-1.88.25,15.39,15.39,0,0,0-1.59.56,1.61,1.61,0,0,1-.56-.15.48.48,0,0,0-.56,0c-.13,0-.2,0-.2,0s0,.05-.1.05a4,4,0,0,1-1.64-.51,4.06,4.06,0,0,0-1.42-.51,2.46,2.46,0,0,1-.87-.56,4.72,4.72,0,0,0-.87-.66,1.06,1.06,0,0,0-.35-.82,2.29,2.29,0,0,1-.57-.71c-.95-.61-1.29-1.31-1-2.09a4.2,4.2,0,0,1,1.53-2c1.09-.68,2.44-1.43,4-2.24s2.91-1.53,3.93-2.15a140.4,140.4,0,0,1,13.92-6.32q7.29-2.85,15.05-5.3,2.65-.72,5.25-1.33t5.56-1.22a1.76,1.76,0,0,1,.82.35,2.78,2.78,0,0,0,.81.46c.41,1,.83,2,1.28,3.06a5.05,5.05,0,0,1-.16,3.78A3.56,3.56,0,0,1,298.4,55a3.88,3.88,0,0,1-1.88.15,21.1,21.1,0,0,0-3.68.15,25.19,25.19,0,0,0-3.36.67l-2.19.46c-.79.17-1.65.32-2.61.46A28.46,28.46,0,0,1,281,58.14a31.62,31.62,0,0,0-4,1.33,23.13,23.13,0,0,0-3.52.81,28.89,28.89,0,0,0-3.06,1.18c-1,.44-1.93.9-2.85,1.37S265.61,63.75,264.59,64.16Zm17.65,6.22a61.85,61.85,0,0,0-8.11,1.53q-3.93,1-8.21,1.73l-.21.21-.3.3c-1.16.14-2.37.35-3.62.62a10.58,10.58,0,0,0-3.12,1.12A58.61,58.61,0,0,0,251.18,78a64,64,0,0,0-6.58,2.7q9.48-2,19.07-4.69T282.24,70.38Z" transform="translate(-5.62 -14.69)"/><path class="cls-1" d="M278.87,37.13a1.89,1.89,0,0,0,1.28.87c.44,0,.93,0,1.47,0,2.05-.21,4.15-.46,6.33-.77s4.25-.63,6.22-1q7.75-1.12,15.71-2.24t15.81-1.53c-1.63.2-3.33.41-5.1.61a38.7,38.7,0,0,0-5.1.92c.07.14.19.15.36,0a.86.86,0,0,1,.76.05,10.88,10.88,0,0,1-1.38.1,2.8,2.8,0,0,0-1.07.21,3.26,3.26,0,0,0,1.58.2l1.59-.2q3.56-.4,7.34-.92t7.34-.72c0,.14.11.19.31.16s.27,0,.2.15a2,2,0,0,0,1.69-.71,6.18,6.18,0,0,1,1.47-1.33c.62-.54,1.28-1.1,2-1.68s1.45-1.14,2.2-1.69c1.22-1.15,2.44-2.26,3.67-3.31s2.51-2.09,3.88-3.11c.74-.61,1.41-1.19,2-1.74l2-1.83c.61-.55,1.16-1.06,1.64-1.53l1.52-1.53a11,11,0,0,0,2.15,0,1.25,1.25,0,0,1,1.17.61,1.84,1.84,0,0,0,.87.82c.68,1.42,1.41,2.79,2.19,4.08a6.3,6.3,0,0,1,.66,4.59,9,9,0,0,1-3.31,2.39,13.82,13.82,0,0,0-3.62,2.3.52.52,0,0,0,.51.15,2,2,0,0,1,.71.05c3.26.14,6.53.17,9.79.1s6.63,0,10.1.21c1.7.2,3.52.41,5.46.61s3.87.46,5.81.77a53.48,53.48,0,0,1,5.61,1.17,26,26,0,0,1,5,1.83,5.94,5.94,0,0,1,.82,3.27c-.07.2-.18.27-.31.2a.35.35,0,0,0-.41.1c-.14.14-.12.17.05.11s.26,0,.26.1a2.3,2.3,0,0,0-.72.61c.27.14.34.24.21.31s0,.13.3.2a13.38,13.38,0,0,1-1.63.56c-.61.17-1.22.36-1.84.56a1.36,1.36,0,0,0-.45.1,1.08,1.08,0,0,1-.77-.1q1,.51,1.53.21a2.49,2.49,0,0,1,1.33-.31q0-.1.15-.15a.56.56,0,0,0,.26-.36.55.55,0,0,0,.66.15,1.16,1.16,0,0,1,.87,0c.06.41-.11.58-.52.51s-.54,0-.4.31l-1.53.2c-.41.07-.89.17-1.43.31.07.14.15.15.25,0s.19-.12.26,0c-.27.34-.53.46-.77.36a10.17,10.17,0,0,0-1-.36,1.84,1.84,0,0,1,.41,0,1.44,1.44,0,0,0,.41,0,2.14,2.14,0,0,0-1.63.05,6,6,0,0,1-1.63.46c-.28.14-.48.16-.61,0a3.77,3.77,0,0,0-.41-.25,2.44,2.44,0,0,1-.82.05,5.71,5.71,0,0,0-.81-.05,6,6,0,0,0-1.74.05c-.61.1-1.19.19-1.73.25a.91.91,0,0,1-.72-.1.94.94,0,0,0-.71-.1,9,9,0,0,0-2.55.36,21.61,21.61,0,0,1-2.45.56,1.73,1.73,0,0,0-1.32-.31,4.87,4.87,0,0,1-1.43,0c0,.07.1.1.3.1-.95.14-1.83.26-2.65.36a19.36,19.36,0,0,1-2.34.15c-.07-.06-.06-.08.05,0a.21.21,0,0,0,.25-.05,18,18,0,0,1-2.5.26,8.19,8.19,0,0,0-2.7.56l-.1-.1v-.11a8.84,8.84,0,0,0-2.91.31,22.89,22.89,0,0,1-2.91.61,1,1,0,0,1-.3,0l.2,0a165.87,165.87,0,0,1,16.42-4.33q8.47-1.78,16.63-4.24-.11-.3-.87-.45a6.58,6.58,0,0,0-1.38-.16,13,13,0,0,1-2.14-.51,5.58,5.58,0,0,0-1.73-.3.34.34,0,0,1-.31-.16,1.82,1.82,0,0,0-.2-.25,1.69,1.69,0,0,1-.51.61,5.6,5.6,0,0,0-.77-.2,3.37,3.37,0,0,0-.66-.11c.14-.13.41-.15.82,0a1.66,1.66,0,0,0,.92,0,18.29,18.29,0,0,0-2.2-.45,3.67,3.67,0,0,0-1.89.15,4.46,4.46,0,0,0-2.29-.21,12,12,0,0,1-2.09.21,1.06,1.06,0,0,1-.66.25,1.45,1.45,0,0,1-.87-.15,1.32,1.32,0,0,0,.66,0,5.13,5.13,0,0,1,.56,0A5.88,5.88,0,0,0,374.6,34a4.33,4.33,0,0,1-2.19-.26.38.38,0,0,0,.3.1.7.7,0,0,1-.87.36,3.59,3.59,0,0,0-.86-.15l-1.13.2a6.81,6.81,0,0,1-1.32.1,2.22,2.22,0,0,1-1.07,0,6.8,6.8,0,0,0-1.48-.15v.2a6.38,6.38,0,0,1-.72,0,2.71,2.71,0,0,0-1.12.16l-.2-.11a6.93,6.93,0,0,0-1.94.31,5.64,5.64,0,0,1-2.14.2.7.7,0,0,1-.61-.1,1.13,1.13,0,0,0-.92,0,16.15,16.15,0,0,0-1.63.51,2.58,2.58,0,0,1-1.33.21.49.49,0,0,0,.66.25.65.65,0,0,1,.67,0c-.62.14-1.3.27-2,.41a6.87,6.87,0,0,1-2,.1,6.59,6.59,0,0,1-2.2.46l-2.39.1c-.82,0-1.6.09-2.35.16a6.24,6.24,0,0,0-2,.51c-.2.2-.17.3.1.3a2.92,2.92,0,0,0-1.68.46c-.44.31-.94.66-1.48,1.07a5,5,0,0,0-.82.61q-.3.32-.51.51a2.22,2.22,0,0,1-.45.36,2.71,2.71,0,0,0-.56.46c-.69.48-1.42.95-2.2,1.43a10.34,10.34,0,0,0-2,1.53,3.45,3.45,0,0,1-.56.46l-.56.35c-.2.21-.41.43-.61.67s-.48.52-.82.86q-.81.72-1.68,1.38a11.74,11.74,0,0,0-1.68,1.58.29.29,0,0,0-.26.1c0,.07-.12.07-.25,0a5.38,5.38,0,0,1-1.84,2,5.23,5.23,0,0,0-1.73,1.74,9.48,9.48,0,0,0-1.23,1l-1.32,1.17a2.7,2.7,0,0,0-.56.51,2.74,2.74,0,0,1-.57.51c-.06.2-.27.31-.61.31a2.3,2.3,0,0,1-.4.91,12.37,12.37,0,0,0-1,.92l-1,1a14.09,14.09,0,0,0-1.79,1.94,7.35,7.35,0,0,1-2.09,1.84c-.07.2-.15.3-.26.3s-.18.14-.25.41a1.21,1.21,0,0,0-1.12.31,2.48,2.48,0,0,0-.61.91,4.76,4.76,0,0,0-.57.36c-.23.17-.29.29-.15.36-.07.13-.14.19-.2.15a.18.18,0,0,0-.21.05,6.27,6.27,0,0,1-.76,1.58,6.93,6.93,0,0,1-1,1.18,8.53,8.53,0,0,0-1,1.07,3.36,3.36,0,0,0-.66,1.27,1.78,1.78,0,0,0-.87.87,1.32,1.32,0,0,1-.87.76q2.55-1.22,5-2.55t5-2.75q2.34-1.42,4.84-2.7t5-2.71q5.82-3.26,11.83-6.12t12.24-5.5c-1.36.74-2.72,1.53-4.08,2.34a38.07,38.07,0,0,1-4.08,2.14,2.22,2.22,0,0,1-.35.31A1.26,1.26,0,0,0,340,56c-.14-.14-.31-.12-.51,0a1.25,1.25,0,0,0-.41.56,7.32,7.32,0,0,0-2.65,1.63,7.36,7.36,0,0,1-2.55,1.63,1.65,1.65,0,0,0-.26.31.55.55,0,0,1-.15.2,20.11,20.11,0,0,1-2,1.08,3.08,3.08,0,0,0-1.53,1.47,2.83,2.83,0,0,0-1.17.41,2.79,2.79,0,0,1-1.17.41,1.52,1.52,0,0,0-.26.41.88.88,0,0,1-.66.41c-.07.13-.09.24-.05.3s0,.17-.16.31A15.54,15.54,0,0,1,323.5,67,11.69,11.69,0,0,0,320.69,69a3.81,3.81,0,0,0-.66.31,1.38,1.38,0,0,0-.56.81c-.41.35-.87.72-1.38,1.13a7.21,7.21,0,0,1-1.79,1,.45.45,0,0,1-.35.35,1.25,1.25,0,0,0-.56.36,1.59,1.59,0,0,0-.72.51.62.62,0,0,1-.71.2,10.11,10.11,0,0,1-2.6,2.2,9.12,9.12,0,0,0-2.6,2.29c-.07.27-.05.46.05.56a1.36,1.36,0,0,1,.25.36q-1,.72-2,1.38c-.68.44-1.32.9-1.94,1.37h-.25s0,.07-.05.21a.82.82,0,0,0-.77.51c-.17.34-.49.44-1,.3a1,1,0,0,0-.1.31c0,.07-.07.17-.2.31a1,1,0,0,0-.92.3c-.27.27-.37.48-.31.61a2.94,2.94,0,0,0-1.17.41,1.26,1.26,0,0,1-1,.21c0,.2.1.3.31.3a.92.92,0,0,0-1,.31.09.09,0,0,0,.1-.1c0-.14,0-.21.1-.21a.76.76,0,0,1-.51,0,5.61,5.61,0,0,0-.81,0,.18.18,0,0,1,.2-.2c.14,0,.14-.14,0-.41-.2-.07-.39,0-.56.31s-.32.34-.46.2a.18.18,0,0,1,.2-.2H297c.06-.21,0-.31-.16-.31s-.22.14-.15.41a.76.76,0,0,1-.46-.56.56.56,0,0,0-.25-.46,3.62,3.62,0,0,1-.51,0c-.21,0-.34,0-.41,0a2.05,2.05,0,0,0-.77-.77l-.61-.25a.65.65,0,0,1-.36-.41,2.44,2.44,0,0,1,.11-1.12,2.6,2.6,0,0,1-.62-1.89,4.89,4.89,0,0,1,.67-1.94,11.44,11.44,0,0,1,1.32-1.83c.51-.58.94-1.11,1.28-1.58a213.14,213.14,0,0,1,15.5-19.33q8.16-9,17-17.39a.33.33,0,0,0-.36,0c-.1.06-.22,0-.36-.11a.65.65,0,0,1,.56-.15.52.52,0,0,0,.56-.25c-.54.06-1.12.12-1.73.15s-1.29.09-2,.15a2,2,0,0,1,.87-.2H327a6.69,6.69,0,0,0-2.9.2,16.13,16.13,0,0,1-2.7.61.59.59,0,0,1,.4-.2,1,1,0,0,0,.51-.2,33,33,0,0,1-3.36.25,18,18,0,0,0-3.27.36c.14-.34.1-.44-.1-.31s-.37.07-.51-.2c-.14,0-.17.08-.1.25s0,.22-.1.16a1,1,0,0,0-1.07.2.88.88,0,0,1-1,.2c0,.07,0,.14-.16.21a.34.34,0,0,0-.15.3,1.36,1.36,0,0,0-.92.21q-.19.21-1,0a3.37,3.37,0,0,1,.72-.15,1,1,0,0,0,.61-.26c-.21-.27-.39-.32-.56-.15a1.42,1.42,0,0,1-.77.35h.21a.29.29,0,0,0,.2-.1c.07.14,0,.21-.2.21h-.41c.13.06,0,.15-.31.25a3.6,3.6,0,0,1-1,.15,1.86,1.86,0,0,1,1.12-.3,7.86,7.86,0,0,0-1.47-.1,3,3,0,0,0-1.48.3c-.07,0-.11,0-.11-.15s-.06-.12-.2,0a2.58,2.58,0,0,0-.61.1,2.66,2.66,0,0,1-.61.1,2.83,2.83,0,0,1,.56-.3,1.72,1.72,0,0,1,.86,0,2.22,2.22,0,0,0-1.07,0,1.42,1.42,0,0,1-1,0c0-.14,0-.19.06-.16s.05,0,.05,0h-.82a.81.81,0,0,0-.61.21c.07.06.1.06.1,0s0-.11.1-.11c-.75.35-1.44.68-2.09,1a4.75,4.75,0,0,1-2.29.51.87.87,0,0,1,.46-.25.86.86,0,0,0,.46-.26,1.65,1.65,0,0,0-.92.06l-.92.35c0-.06.07-.08.2,0s.17,0,.1-.15-.32,0-.35.1-.22.14-.56,0h.3a.55.55,0,0,0-.4-.2c-.14,0-.21.06-.21.2a2.48,2.48,0,0,0-1,0c-.41.07-.65.17-.71.31-1.36.2-2.57.4-3.62.61a26.85,26.85,0,0,1-3.52.41.24.24,0,0,0-.26.2c0,.14-.18.14-.46,0h.21a.18.18,0,0,0,.2-.2c-.13.13-.46.18-1,.15a4,4,0,0,1-1.27-.26c-.07,0-.11.07-.11.21s0,.1-.1.1h-.71a1,1,0,0,0-.51.2,5.93,5.93,0,0,0-1.79-.35c-.64,0-1.3-.05-2-.05a3.52,3.52,0,0,1-2.35-.56c-.61-.45-1.23-.94-1.84-1.48-.13-.41-.35-1-.66-1.69a1.92,1.92,0,0,1,.05-1.88A4.61,4.61,0,0,1,278,34.88a14.11,14.11,0,0,1,2-.71,44.29,44.29,0,0,1,6.17-2.45q3.52-1.12,6.28-1.83c.95-.14,1.85-.27,2.7-.41l2.5-.41c-.21.34-.75.51-1.63.51s-1.48.31-2.2.51a7.73,7.73,0,0,1-2.09.31,4.45,4.45,0,0,1-1.63.71,2.52,2.52,0,0,0-1.43.82.85.85,0,0,0-.51.15.27.27,0,0,1-.4,0c-.14.14-.19.25-.16.36s0,.18-.15.25a28.4,28.4,0,0,0-7.24,3.26.27.27,0,0,0,.4.06,2.76,2.76,0,0,1,.41-.26c0,.27-.2.49-.61.66a3,3,0,0,0-.92.56c.41-.2.5-.22.26-.05A1.47,1.47,0,0,1,278.87,37.13Zm33.87-.21a3.11,3.11,0,0,1-1.38.11c-.51-.07-.8,0-.87.1a4.75,4.75,0,0,1-1.07.25,2.58,2.58,0,0,0-.87.26.89.89,0,0,0-.61,0,.77.77,0,0,0-.51.3c1.56-.27,3.16-.52,4.79-.76s3.2-.53,4.7-.87c-.82.14-1.53.24-2.14.31S313.48,36.79,312.74,36.92Zm3.87.51c.07.28.26.35.56.21a8.23,8.23,0,0,1,.77-.31,4.12,4.12,0,0,0,1.43-.41,2.44,2.44,0,0,1,1.42-.2,6.51,6.51,0,0,0-2.39.2C317.75,37.13,317.15,37.3,316.61,37.43Zm15.1-2.75a.59.59,0,0,1-.67,0,.93.93,0,0,0-.86,0,10,10,0,0,0-2.81.26,7.57,7.57,0,0,1-2.8.15.33.33,0,0,1-.41.25.54.54,0,0,0-.41,0v.31a8,8,0,0,0-1.78-.2,2.22,2.22,0,0,0-1.48.51.21.21,0,0,0-.16.05s-.12,0-.25-.05a.39.39,0,0,0,.1.3l.2.21c1.3-.34,2.55-.62,3.78-.82a16.75,16.75,0,0,1,4.18-.1.59.59,0,0,1,.71-.31,4,4,0,0,0,.72.1,4.91,4.91,0,0,1-1.23.26,2.82,2.82,0,0,0-1,.25c.27-.06.23-.08-.11,0a9.71,9.71,0,0,1-1.12,0,1.45,1.45,0,0,0-1.53.62c1-.14,1.82-.24,2.6-.31a9.21,9.21,0,0,0,2.3-.51v.1c0,.07,0,.1.1.1a1.33,1.33,0,0,0,1.12-.51l-.51.16a.68.68,0,0,1-.51-.16,1.9,1.9,0,0,0,1.12-.15C331.4,35.07,331.64,34.88,331.71,34.68Zm43.86-1.12a.12.12,0,0,1,.2,0c.07.07.1.07.1,0a5.22,5.22,0,0,1-2.14-.26,2.85,2.85,0,0,0-2,.05,6.24,6.24,0,0,0,2,.31c.75,0,1.6,0,2.55-.1a.25.25,0,0,0-.41,0C375.74,33.7,375.63,33.7,375.57,33.56Z" transform="translate(-5.62 -14.69)"/><path class="cls-1" d="M334.66,70.69a2.64,2.64,0,0,0,1.53,0,1.09,1.09,0,0,1,1.23.25,4.05,4.05,0,0,0,1.12,2.19,3.38,3.38,0,0,1,.92,2.4,10.76,10.76,0,0,1-.41,1.79,1.66,1.66,0,0,0,.31,1.68c-.07.34-.14.63-.21.86s-.14.5-.2.77A7.35,7.35,0,0,0,337,82.37a5.53,5.53,0,0,1-2.24,1.68,14.92,14.92,0,0,1-2.6.87,7.06,7.06,0,0,1-2.71.15,5.64,5.64,0,0,1-1.22-.36,1.84,1.84,0,0,1-.92-.76,3,3,0,0,0-.15-1.79c-.24-.64-.48-1.31-.72-2a16.17,16.17,0,0,1-.56-2,2.36,2.36,0,0,1,.31-1.78,2.09,2.09,0,0,1,.81-.67c.27-.1.48-.42.62-1a1.52,1.52,0,0,0,1.58-.62,1.83,1.83,0,0,0,.46-1.63.67.67,0,0,0-.41-.51c-.21-.06-.24-.27-.1-.61a.94.94,0,0,1,1.07,0,1.82,1.82,0,0,0,1.17.36,3.42,3.42,0,0,0,.87-.26,2.54,2.54,0,0,0,.86-.46.86.86,0,0,0,.21-.76c-.07-.24.06-.39.41-.46a.47.47,0,0,1,.51.31A1,1,0,0,0,334.66,70.69Z" transform="translate(-5.62 -14.69)"/></svg>